<svg xmlns="http://www.w3.org/2000/svg" width="468.29" height="163.51" viewBox="0 0 468.292 163.515" enable-background="new 0 0 468.292 163.515">
  <path fill="#808080" d="M15.86.5v1c.75 0 1.54 0 2.4.04 9.36.26 12.38 3.4 12.42 12.9.02 4.7.02 9.4.02 14.1 0 5.55 0 11.27.04 16.9 0 .3-.02.6-.05.93-.1 1.38-.22 3.08 1.24 4.95l.64.8.8-.65c4.83-4.04 10.1-6.16 16.1-6.5.67-.02 1.35-.04 2.02-.04 11.1 0 20.54 4.88 29.72 15.35 11.4 13 14.56 27.56 9.4 43.28-5.6 17.02-16.6 27.54-32.75 31.25-2.1.5-4.07.72-6.04.72-5.8 0-11.77-2.04-19.9-6.84l-.85-.5-.52.84c-2.06 3.3-5.1 5.3-9.24 6.1-2.65.5-5.02.77-7.06.77-9.06 0-12.76-4.87-12.76-16.78 0-36.8 0-69.98.04-101.47C1.54 4.22 3.96 1.5 15.84 1.5l.02-1m31.26 106.3c8.38-.02 16.3-8.07 16.33-16.6 0-4.27-1.65-8.3-4.67-11.32-3.08-3.08-7.2-4.77-11.6-4.77h-.08c-8.53.05-15.85 7.35-16 15.95-.07 4.2 1.74 8.5 4.98 11.78 3.1 3.15 7.12 4.96 11.04 4.96M15.85.5C3.3.5.55 3.9.55 17.65.5 51.47.5 85.3.5 119.12c0 12.3 4.08 17.77 13.77 17.77 2.13 0 4.54-.28 7.24-.8 4.33-.82 7.64-2.9 9.9-6.55 8.07 4.74 14.26 6.97 20.43 6.97 2.07 0 4.13-.25 6.27-.74 17.4-4 28.12-15.62 33.47-31.9 5.33-16.26 1.72-31.34-9.6-44.25-8.13-9.28-17.75-15.7-30.47-15.7-.68 0-1.38.02-2.08.06-6.36.33-11.86 2.67-16.7 6.7-1.53-1.97-.97-3.7-.98-5.27-.07-10.33 0-20.66-.06-31C31.64 4.4 28.18.84 18.3.54L15.85.5zm31.27 105.3c-7.85 0-15.16-7.66-15.02-15.73.14-8.02 7.06-14.92 15-14.96h.08c8.48 0 15.3 6.74 15.27 15.1-.02 7.95-7.52 15.58-15.32 15.6z"/>
  <path fill="#808080" d="M153.33 42.25c9.7 0 18.72 3.1 26.82 9.23 10.05 7.6 14.64 18.75 13.27 32.22-1 9.74-8.2 16.07-18.34 16.13-3.38.02-7 .03-11.76.03h-11.27c-3.5 0-6.98 0-10.5.02-.37 0-.74-.03-1.14-.05-.4-.03-.84-.06-1.28-.06-.97 0-2.24.12-3.42 1.07l-.5.4.15.6c1.26 5.54 6.95 9.84 13.84 10.44 2.3.2 4.36.3 6.33.3 5.94 0 11.1-.93 15.78-2.83 2.56-1.04 4.68-1.54 6.5-1.54 4.02 0 6.86 2.6 9.46 8.7 3.37 7.9 1.32 13.38-6.25 16.75-7.96 3.54-16.37 4.03-24.27 4.03-2.04 0-4.12-.03-6.13-.07-1.2 0-2.4-.03-3.62-.04-6.5-.07-12.68-1.54-18.38-4.37-17.3-8.6-25.9-23.52-25.56-44.38.3-19.87 9.94-34.28 27.85-41.7 7.83-3.22 15.38-4.87 22.43-4.87M134.4 85.2h13.55c3.44.02 6.23 0 8.78-.02 2.14-.02 6.12-.06 7.4-4.27 1.12-3.67-.1-7.12-3.36-9.43-2.44-1.74-5.16-2.63-8.07-2.63-2.33 0-4.75.57-7.18 1.7-4.84 2.2-9.92 5.55-10.97 13.53l-.14 1.13m18.93-43.95c-7.5 0-15.18 1.8-22.82 4.96-18.7 7.74-28.15 22.6-28.46 42.6-.3 20 7.42 36 26.1 45.28 5.9 2.92 12.23 4.4 18.83 4.48 3.25.04 6.5.12 9.76.12 8.4 0 16.73-.58 24.68-4.1 8.1-3.6 10.32-9.77 6.78-18.06-2.7-6.33-5.78-9.3-10.4-9.3-1.97 0-4.22.54-6.85 1.6-5.04 2.06-10.2 2.76-15.4 2.76-2.07 0-4.15-.1-6.24-.3-6.66-.58-11.84-4.74-12.96-9.66.87-.7 1.83-.85 2.8-.85.8 0 1.62.1 2.4.1H152.06c3.76-.02 7.5 0 11.26 0 3.92 0 7.84-.02 11.76-.04 10.64-.06 18.28-6.62 19.34-17.03 1.36-13.4-2.9-24.97-13.67-33.1-8.7-6.6-17.94-9.45-27.42-9.45zm-5.38 42.97l-12.4-.02c.95-7.3 5.4-10.48 10.38-12.76 2.2-1.02 4.5-1.6 6.77-1.6 2.57 0 5.1.75 7.5 2.44 2.78 2 4.02 4.9 2.97 8.34-.96 3.2-3.7 3.54-6.45 3.56-2.9.03-5.8.03-8.77.03v.02z"/>
  <path fill="#808080" d="M220.88 44.64c2.33 0 4.6.36 7 .74l1.3.2c3.27.52 4.62 2.93 6.18 5.74.3.54.6 1.1.93 1.62l.5.85.86-.5c.3-.2.6-.33.85-.47.6-.3 1.17-.6 1.65-1.06 4.86-4.6 11.13-7.05 18.12-7.05 11.43 0 21.73 6.13 26.87 12.2 8.15 9.63 12.2 20.17 12.43 32.24.18 9.86.18 20.64.02 33.94-.12 8.77-3.28 12-12.12 12.34h-.6l-.37.02h-1.62c-12.28 0-14.6-2.54-14.6-16.02v-9.46c0-6.23.03-12.68-.03-19.03-.1-10.67-6.12-17.03-16.1-17.04h-.07c-9.8.04-16.23 6.7-16.34 17-.07 6.1-.06 12.27-.04 18.25 0 4.67.02 9.5 0 14.23-.06 8.16-3.25 11.53-11.4 12.03-.72.05-1.5.07-2.46.07-.64 0-1.28 0-1.95-.02-10.47-.15-13.35-3.03-13.4-13.43-.06-19.98-.06-40.9.03-63.95.04-10.23 2.02-12.35 12.5-13.35.58-.05 1.2-.08 1.85-.08m0-1c-.65 0-1.3.02-1.96.1-10.92 1.03-13.35 3.5-13.4 14.33-.07 21.32-.1 42.63 0 63.95.03 11.06 3.35 14.28 14.35 14.43l1.97.02c.84 0 1.68-.02 2.52-.07 8.6-.52 12.27-4.36 12.33-13 .05-10.84-.1-21.67.03-32.5.1-9.83 6.1-15.96 15.35-16h.07c9.3 0 15 5.97 15.1 16.06.1 9.5 0 18.98 0 28.48.02 13.87 2.68 17.03 15.62 17.03.53 0 1.08 0 1.65-.02h1c9.28-.37 12.95-3.98 13.07-13.34.12-11.3.17-22.64-.04-33.96-.22-12.44-4.57-23.3-12.66-32.87-5.84-6.9-16.74-12.55-27.63-12.55-6.66 0-13.3 2.1-18.8 7.33-.58.54-1.38.83-2.32 1.38-2.02-3.37-3.36-7.14-7.83-7.83-2.8-.44-5.6-.96-8.44-.96z"/>
  <path fill="#808080" d="M456.9 77.15c1.1 0 2.2.06 3.36.14 4.04.25 6.2 2.46 6.22 6.4.03 4.32.1 8.73.15 13 .18 13.42.37 27.3-.38 40.9-.72 13.23-13.93 24.4-28.83 24.4-1.85 0-3.7-.17-5.46-.52-5.65-1.12-10.7-3.34-15.03-6.6-3.56-2.68-4.02-5.7-1.43-9.52 2.57-3.8 4.7-5.5 6.94-5.5 1.18 0 2.47.46 3.96 1.42 4 2.57 7.37 3.7 10.92 3.7.3 0 .6 0 .9-.02 3.1-.17 5.83-1.62 7.66-4.07 1.94-2.6 2.6-6.04 1.78-9.43l-.25-1.06-1.03.36c-4.96 1.66-9.26 2.47-13.13 2.47-8.2 0-14.43-3.72-19.57-11.7-7.4-11.5-6.14-25.48 3.2-35.62 4.92-5.3 10.53-8 16.68-8 4.2 0 8.68 1.27 13.27 3.8l.86.47.5-.84c2.14-3.68 5.45-4.18 8.7-4.18m-19.42 39c2.67 0 5.23-1.08 7.2-3.07 1.98-2 3.1-4.7 3.07-7.44-.05-5.8-4.64-10.36-10.45-10.36h-.06c-5.7.03-10.38 4.73-10.47 10.48-.03 2.58 1 5.1 2.94 7.07 2.02 2.08 4.82 3.3 7.65 3.33h.1m19.44-40c-3.8 0-7.3.76-9.6 4.66-4.78-2.63-9.4-3.93-13.76-3.93-6.42 0-12.3 2.8-17.4 8.33-9.7 10.54-11 24.9-3.3 36.85 5.26 8.18 11.76 12.15 20.4 12.15 4 0 8.45-.85 13.45-2.52 1.48 6.25-2.5 11.93-8.54 12.27l-.84.02c-3.83 0-7.15-1.5-10.38-3.56-1.63-1.05-3.1-1.58-4.5-1.58-2.67 0-5.06 1.94-7.77 5.94-2.84 4.2-2.35 7.86 1.66 10.88 4.6 3.46 9.78 5.66 15.43 6.78 1.88.37 3.77.55 5.66.55 14.8 0 29.04-10.97 29.83-25.35 1-17.94.36-35.98.24-53.97-.04-4.4-2.52-7.1-7.18-7.4-1.16-.06-2.3-.13-3.43-.13zm-19.44 39h-.1c-5.2-.06-9.68-4.43-9.6-9.4.07-5.22 4.3-9.46 9.47-9.48h.05c5.23 0 9.4 4.13 9.45 9.37.05 5.1-4.25 9.5-9.27 9.5z"/>
  <path fill="#808080" d="M389.6 77.35c1.94 0 3.98.36 6.08.76 3.25.64 3.75 3.67 3.76 5.42.03 4.7.1 9.48.17 14.1.2 13.2.4 26.87-.4 40.22-.76 13.1-13.94 24.18-28.76 24.18-1.74 0-3.48-.16-5.17-.48-5.62-1.05-10.68-3.23-15.06-6.46-3.56-2.63-3.88-6.14-.97-10.4 2.22-3.25 4.22-4.76 6.32-4.76 1.17 0 2.45.45 3.9 1.38 2.68 1.72 6.33 3.7 10.84 3.7.13 0 .27 0 .42-.02 3.3-.1 6.18-1.5 8.1-4 2-2.58 2.67-6.04 1.86-9.5l-.25-1.07-1.04.36c-5 1.66-9.3 2.47-13.15 2.47-8.32 0-14.6-3.83-19.8-12.05-7.58-12.03-6.12-25.4 3.92-35.76 4.84-5 10.26-7.53 16.1-7.53 4.3 0 8.8 1.36 13.43 4.08l.8.47.53-.76c2.08-3 4.65-4.35 8.36-4.35m-19.16 38.8c5.54 0 10.26-4.73 10.3-10.35.03-5.76-4.6-10.48-10.36-10.52h-.07c-5.72 0-10.35 4.53-10.53 10.32-.08 2.57.92 5.1 2.82 7.1 2 2.13 4.77 3.4 7.6 3.46h.24m19.15-39.8c-3.42 0-6.62 1.04-9.2 4.76-4.8-2.83-9.5-4.24-13.93-4.24-6.1 0-11.8 2.65-16.82 7.84-10.34 10.67-11.86 24.6-4.04 37 5.33 8.43 11.9 12.5 20.65 12.5 4 0 8.45-.84 13.46-2.5 1.52 6.46-2.64 12.1-9 12.26h-.42c-3.83 0-7.1-1.48-10.3-3.52-1.6-1.03-3.05-1.54-4.43-1.54-2.5 0-4.77 1.7-7.14 5.18-3.2 4.7-2.8 8.8 1.22 11.8 4.62 3.4 9.82 5.56 15.46 6.62 1.78.33 3.58.5 5.36.5 14.7 0 28.93-10.84 29.77-25.12 1.08-18.07.35-36.25.24-54.38-.02-2.94-1.25-5.75-4.57-6.4-2.1-.4-4.23-.77-6.28-.77zm-19.16 38.8h-.2c-5.2-.13-9.63-4.58-9.47-9.53.16-5.24 4.36-9.35 9.54-9.35h.08c5.23.03 9.4 4.26 9.35 9.5-.03 5.1-4.3 9.38-9.3 9.38z"/>
  <path fill="#808080" d="M321.76 127.48c1.63 0 2.74.33 3.38 1 .6.64.86 1.62.78 3v.14c.1 1.35-.1 2.3-.66 2.9-.6.67-1.7 1-3.37 1-1.66 0-2.77-.3-3.4-.95-.58-.6-.86-1.53-.84-2.9.02-2.97 1.2-4.2 4.1-4.2m0-1c-3.52 0-5.07 1.75-5.1 5.2-.04 3.64 1.84 4.84 5.23 4.84h.03c3.53 0 5.27-1.44 5-4.96.18-3.72-1.8-5.06-5.17-5.06z"/>
</svg>
