<svg xmlns="http://www.w3.org/2000/svg" width="1200" height="800" xmlns:xlink="http://www.w3.org/1999/xlink" viewBox="0 0 1200 800"><defs><path id="a" d="M0 0h1200v800H0z"/></defs><clipPath id="b"><use xlink:href="#a" overflow="visible"/></clipPath><g clip-path="url(#b)"><path fill="#D8C761" d="M21.9-30.16h2.5V293.5h-2.5z"/><path fill="#9FC473" d="M37.52-65.57h2.5V258.1h-2.5z"/><path fill="#D8C761" d="M59.4-43.7h2.48v376.5h-2.5z"/><path fill="#5B87AE" d="M-27.05 271.55V-38.7h2.5v307.75h17.28V195.1h15v115.82h-2.5V197.6h-10v73.95"/><path fill="#72649A" d="M-10.9-34.52h2.5v207.97h-2.5z"/><path fill="#5EA5C6" d="M5.23-30.16h2.5v176.52h-2.5z"/><path fill="#D29771" d="M213.54 320.3V153.44h73.95v-183.6h2.48v186.1h-73.95V320.3"/><path fill="#AE6762" d="M201.4 298.42V140.14H275v-170.3h2.48v172.8h-73.6v155.78"/><path fill="#A0697A" d="M187.5 284.54V126.26h73.6v-170.3h2.5v172.8H190v155.78"/><path fill="#D8C761" d="M235.75-28.13h2.5v137.95h-2.5z"/><path fill="#D29771" d="M225.64-79.58h2.5V58.37h-2.5z"/><path fill="#D8C761" d="M247.35-41.04h2.5V96.9h-2.5zM201.3-28.13h2.5v137.95h-2.5z"/><path fill="#D29771" d="M189.55-58.45h2.5V79.5h-2.5zM212.9-61.6h2.5V76.33h-2.5z"/><path fill="#D8C761" d="M159.83 298.42v-85.68h9.25V-28.13h2.5v243.36h-9.26v83.2"/><path fill="#9FC473" d="M177.42-28.13h2.5v281.46h-2.5z"/><path fill="#CF5F93" d="M159.83-26.27h2.5v205.54h-2.5z"/><path fill="#D29771" d="M98.26 244.4V131.26h19.9V-34.52h2.5v168.28h-19.9V241.9h6.47v45.8h-2.5v-43.3"/><path fill="#AE6762" d="M103.8 237.92V137.74h21.77v-161.7h2.5v164.2H106.3v95.18h9.03v33.2h-2.5v-30.7"/><path fill="#5B87AE" d="M133.44-23.96h2.5v285.63h-2.5z"/><path fill="#5EA5C6" d="M142.7 187V-26.28h2.5V184.5h5.55v52.75h-2.5V187"/><path fill="#905690" d="M151.96-26.27h2.5v187.3h-2.5z"/><path fill="#5B87AE" d="M118.16 229.58v-80.26h16.53v2.5h-14.04v75.27h4.63v20.68h-2.5v-18.2"/><path fill="#5B87AE" d="M125.57 209.82V168.3h9.12v2.5h-6.64v39.02"/><path fill="#5EA5C6" d="M90.85 209.82v-98.55h20.37v-13.1h-5.56V-26.28h2.5V95.66h5.55v18.1H93.35v96.06"/><path fill="#D29771" d="M44.56 241.3v-55.88h8.33v-60.46h-8.34V-26.27h2.5v148.74h8.32v65.45h-8.33v53.38"/><path fill="#D8C761" d="M23.15 108.76v-2.5h9.55v100.78h-2.5v-98.28"/><path fill="#5EA5C6" d="M-3.6 136.9V102H6.5v2.48H-1.1v32.43"/><path fill="#72649A" d="M-9.66 162.3v-2.5H3.32V178h11.33v54.94h-2.5V180.5H.82v-18.2"/><path fill="#9FC473" d="M94.32-21.64h2.5v121.72h-2.5z"/><path fill="#905690" d="M81.6-23.96h2.5v283.62h-2.5z"/><path fill="#AE6762" d="M64.93 200.42v-55.3h6.7v-38.68h-6.7v-132.7h2.5v130.2h6.7v43.67h-6.7v50.32h5.08v40.14h-2.48v-37.64"/><path fill="#5EA5C6" d="M149.5 200.42v-2.5h10.1v7.04h-2.5v-4.54"/><path fill="#D8C761" d="M297.17-61.64h2.5v233.4h-2.5z"/><path fill="#905690" d="M319.04-39.77h2.5v286.23h-2.5z"/><path fill="#5EA5C6" d="M357.9 158.06V44.93h19.9V-30.6h2.5v78.02h-19.9v108.15h6.48v45.8h-2.5v-43.3"/><path fill="#9FC473" d="M363.46 151.58V51.4h21.76V-20h2.5V53.9h-21.76v95.2H375v33.18h-2.5v-30.7"/><path fill="#D8C761" d="M393.1-20.02h2.48v195.36h-2.5z"/><path fill="#8D7155" d="M404.66-22.34h2.5V74.7h-2.5z"/><path fill="#D8C761" d="M377.8 143.25V62.98h16.54v2.5H380.3v75.27h4.64v20.7h-2.5v-18.2"/><path fill="#D8C761" d="M385.22 123.48V81.96h9.12v2.5h-6.62v39.02"/><path fill="#72649A" d="M350.5 123.48V24.94h20.37V11.82h-5.55v-34.16h2.5V9.33h5.55v18.1H353v96.05"/><path fill="#AE6762" d="M304.2 154.96V99.1h8.34V38.62h-8.33v-60.97h2.5v58.47h8.34v65.45h-8.34v53.38"/><path fill="#D8C761" d="M350.5-17.7h2.5v31.44h-2.5z"/><path fill="#5B87AE" d="M341.24-20.02h2.5v193.35h-2.5z"/><path fill="#CF5F93" d="M324.58 114.08v-55.3h6.7V20.1h-6.7v-42.44h2.5V17.6h6.7v43.67h-6.7v50.32h5.08v40.12h-2.5v-37.64"/><path fill="#905690" d="M-53.4 220.6v-85.7h9.27V-15.7h2.5v153.1h-9.26v83.2"/><path fill="#CF5F93" d="M-35.8-15.7h2.5v191.2h-2.5z"/><path fill="#A0697A" d="M-53.4-13.83h2.5v115.27h-2.5z"/><path fill="#5B87AE" d="M-114.96 166.57V53.43h19.9v-75.5h2.5v78h-19.9v108.14h6.48v45.8h-2.5v-43.3"/><path fill="#5EA5C6" d="M-109.4 160.1V59.9h21.76V-11.5h2.5V62.4h-21.77v95.2h9.02v33.18h-2.5v-30.7"/><path fill="#9FC473" d="M-79.78-11.52h2.5v195.35h-2.5z"/><path fill="#E0C47F" d="M-70.52 109.16v-123h2.5v120.5h5.55v52.76h-2.5v-50.26"/><path fill="#AE6762" d="M-61.26-13.83h2.5v97.05h-2.5z"/><path fill="#D8C761" d="M-95.05 151.75V71.5h16.52v2.48h-14.03v75.28h4.63v20.7h-2.5v-18.2"/><path fill="#9FC473" d="M-87.64 132V90.46h9.1v2.5h-6.6v39.02"/><path fill="#72649A" d="M-122.36 132V33.43H-102v-13.1h-5.55v-34.17h2.5v31.66h5.55v18.1h-20.37V132"/><path fill="#8D7155" d="M-122.36-9.2h2.5v31.44h-2.5z"/><path fill="#905690" d="M-131.62-11.52h2.5v193.35h-2.5z"/><path fill="#CF5F93" d="M-138.18-79.58h2.5v193.35h-2.5z"/><path fill="#E0C47F" d="M-63.7 122.6v-2.5h10.1v7.03h-2.5v-4.54"/><path fill="#D29771" d="M257.24 256.5v-62.65h14.35V154.7h2.48v41.65h-14.35v60.15M244.2 154.32h2.48v71.46h-2.5zM257.24 154.96h2.5v23.24h-2.5zM229.46 252.5v-50.08h4.17v-48.1h2.5v50.6h-4.18v47.58M222.48 154.96h2.5v23.24h-2.5z"/><g><path fill="#AE6762" d="M199.3 300.87c0 1.84 1.5 3.34 3.33 3.34s3.35-1.5 3.35-3.33c0-1.85-1.5-3.35-3.35-3.35s-3.34 1.5-3.34 3.35z"/><path fill="#5EA5C6" d="M146.16 238.97c0 1.84 1.5 3.34 3.34 3.34s3.34-1.5 3.34-3.33-1.5-3.35-3.34-3.35-3.34 1.5-3.34 3.35z"/><path fill="#AE6762" d="M117.9 270.7c0-1.84-1.5-3.34-3.35-3.34-1.84 0-3.34 1.5-3.34 3.35s1.5 3.35 3.35 3.35c1.84 0 3.34-1.5 3.34-3.34zM71.55 236.7c-1.84 0-3.34 1.5-3.34 3.34s1.5 3.34 3.35 3.34 3.35-1.5 3.35-3.34-1.5-3.35-3.35-3.35z"/><circle cx="45.8" cy="243.63" r="3.34" fill="#D29771"/><path fill="#D8C761" d="M31.45 212.54c1.85 0 3.35-1.5 3.35-3.35s-1.5-3.35-3.35-3.35-3.34 1.5-3.34 3.34 1.5 3.34 3.35 3.34z"/><path fill="#5EA5C6" d="M9.82 148.46c0-1.85-1.5-3.35-3.34-3.35-1.85 0-3.34 1.5-3.34 3.36 0 1.84 1.5 3.34 3.34 3.34 1.84 0 3.34-1.5 3.34-3.34z"/><path fill="#5B87AE" d="M127.67 249.88c0-1.85-1.5-3.35-3.34-3.35s-3.35 1.5-3.35 3.35c0 1.84 1.5 3.34 3.35 3.34s3.34-1.5 3.34-3.34z"/><path fill="#5EA5C6" d="M158.35 210.4c1.85 0 3.35-1.5 3.35-3.35s-1.5-3.34-3.35-3.34-3.34 1.5-3.34 3.35 1.5 3.35 3.35 3.35zM95.44 211.9c0-1.83-1.5-3.33-3.34-3.33s-3.35 1.5-3.35 3.35c0 1.84 1.5 3.34 3.35 3.34s3.34-1.5 3.34-3.34z"/><path fill="#CF5F93" d="M161.07 184.66c1.85 0 3.35-1.5 3.35-3.34 0-1.84-1.5-3.34-3.35-3.34-1.84 0-3.34 1.5-3.34 3.34 0 1.84 1.5 3.34 3.34 3.34z"/><path fill="#5B87AE" d="M127.05 207.95c-1.84 0-3.34 1.5-3.34 3.34 0 1.83 1.5 3.33 3.35 3.33 1.84 0 3.34-1.5 3.34-3.34 0-1.85-1.5-3.35-3.35-3.35z"/><path fill="#5EA5C6" d="M1 139c0-1.84-1.5-3.34-3.34-3.34-1.84 0-3.35 1.5-3.35 3.34s1.52 3.35 3.36 3.35c1.84 0 3.34-1.5 3.34-3.35z"/><path fill="#A0697A" d="M188.75 290.24c2.1 0 3.78-1.7 3.78-3.8 0-2.08-1.7-3.77-3.78-3.77-2.1 0-3.8 1.7-3.8 3.78 0 2.1 1.7 3.8 3.8 3.8z"/><path fill="#905690" d="M86.63 262.36c0-2.1-1.7-3.8-3.8-3.8-2.08 0-3.78 1.7-3.78 3.8s1.7 3.8 3.8 3.8c2.08 0 3.78-1.7 3.78-3.8z"/><path fill="#9FC473" d="M95.57 106.35c2.1 0 3.8-1.7 3.8-3.78-.02-2.1-1.7-3.8-3.8-3.8-2.1 0-3.8 1.7-3.8 3.8 0 2.08 1.7 3.78 3.8 3.78zM178.66 259.03c2.1 0 3.8-1.7 3.8-3.78 0-2.1-1.7-3.8-3.8-3.8-2.08 0-3.78 1.7-3.78 3.8 0 2.08 1.7 3.78 3.78 3.78z"/><path fill="#905690" d="M157 163.37c0-2.1-1.7-3.8-3.8-3.8s-3.78 1.7-3.78 3.8c0 2.08 1.7 3.78 3.78 3.78s3.8-1.7 3.8-3.78z"/><path fill="#D8C761" d="M233.2 112.36c0 2.1 1.7 3.8 3.8 3.8 2.08 0 3.78-1.7 3.78-3.8 0-2.08-1.7-3.78-3.8-3.78-2.07 0-3.77 1.7-3.77 3.78z"/><path fill="#D29771" d="M219.23 323.4c0-2.46-2-4.45-4.44-4.45-2.46 0-4.46 2-4.46 4.44 0 2.44 2 4.43 4.45 4.43 2.44 0 4.43-2 4.43-4.44z"/><path fill="#5B87AE" d="M134.7 259.8c-2.46 0-4.45 2-4.45 4.44 0 2.45 2 4.44 4.44 4.44 2.44 0 4.43-2 4.43-4.44 0-2.45-2-4.44-4.44-4.44z"/><path fill="#9FC473" d="M43.2 261.67c0-2.45-1.98-4.45-4.43-4.45-2.45 0-4.45 2-4.45 4.45s2 4.44 4.45 4.44 4.44-1.98 4.44-4.43z"/><path fill="#72649A" d="M17.84 236.47c0-2.45-2-4.45-4.44-4.45-2.45 0-4.44 2-4.44 4.45s2 4.44 4.44 4.44c2.45 0 4.44-1.98 4.44-4.43z"/><path fill="#5B87AE" d="M10.92 314.74c0-2.45-2-4.44-4.44-4.44s-4.44 2-4.44 4.44c0 2.45 2 4.44 4.44 4.44s4.44-2 4.44-4.44z"/><path fill="#72649A" d="M-9.66 172.36c-2.45 0-4.45 2-4.45 4.44s2 4.45 4.44 4.45 4.44-2 4.44-4.45-2-4.44-4.44-4.44z"/><path fill="#D8C761" d="M27.92 297.32c0-2.45-2-4.45-4.44-4.45s-4.44 2-4.44 4.45 2 4.44 4.44 4.44 4.44-2 4.44-4.44z"/><path fill="#D29771" d="M106.1 295.58c2.45 0 4.44-2 4.44-4.45s-2-4.44-4.44-4.44c-2.45 0-4.44 2-4.44 4.43 0 2.45 2 4.45 4.44 4.45z"/><path fill="#D8C761" d="M165.52 300.94c0-2.45-2-4.45-4.45-4.45s-4.44 2-4.44 4.44c0 2.45 2 4.44 4.44 4.44 2.45 0 4.45-2 4.45-4.44zM65.08 336c0-2.46-2-4.45-4.44-4.45-2.45 0-4.44 2-4.44 4.44 0 2.44 2 4.43 4.44 4.43 2.45 0 4.44-2 4.44-4.44z"/><path fill="#D29771" d="M230.67 60.9c0-2.08-1.7-3.78-3.78-3.78s-3.8 1.7-3.8 3.8c0 2.07 1.7 3.77 3.8 3.77s3.77-1.7 3.77-3.8z"/><path fill="#D8C761" d="M248.6 103.23c2.1 0 3.78-1.7 3.78-3.78s-1.7-3.8-3.78-3.8-3.8 1.7-3.8 3.8 1.7 3.78 3.8 3.78zM202.55 116.15c2.1 0 3.8-1.7 3.8-3.8 0-2.07-1.7-3.77-3.8-3.77-2.08 0-3.78 1.7-3.78 3.78 0 2.1 1.7 3.8 3.78 3.8z"/><path fill="#D29771" d="M190.8 85.83c2.1 0 3.8-1.7 3.8-3.8 0-2.07-1.7-3.77-3.8-3.77-2.1 0-3.8 1.7-3.8 3.78 0 2.1 1.7 3.8 3.8 3.8zM214.16 82.67c2.1 0 3.8-1.7 3.8-3.8s-1.7-3.78-3.8-3.78c-2.1 0-3.8 1.7-3.8 3.78s1.7 3.8 3.8 3.8z"/><path fill="#9FC473" d="M374.2 181.03c-1.84 0-3.34 1.5-3.34 3.34s1.5 3.34 3.34 3.34 3.35-1.5 3.35-3.33-1.5-3.34-3.35-3.34z"/><circle cx="331.21" cy="153.7" r="3.34" fill="#CF5F93"/><path fill="#AE6762" d="M305.45 160c1.85 0 3.35-1.5 3.35-3.33s-1.5-3.34-3.35-3.34c-1.84 0-3.34 1.5-3.34 3.34s1.5 3.34 3.35 3.34z"/><path fill="#D8C761" d="M380.64 163.54c0 1.84 1.5 3.34 3.34 3.34 1.85 0 3.34-1.5 3.34-3.34s-1.5-3.35-3.34-3.35c-1.84 0-3.34 1.5-3.34 3.34z"/><path fill="#72649A" d="M351.75 128.92c1.84 0 3.34-1.5 3.34-3.34s-1.5-3.34-3.35-3.34-3.34 1.5-3.34 3.34 1.5 3.34 3.35 3.34z"/><path fill="#D8C761" d="M383.36 125.58c0 1.84 1.5 3.34 3.34 3.34s3.34-1.5 3.34-3.34-1.5-3.34-3.34-3.34-3.34 1.5-3.34 3.34z"/><path fill="#5B87AE" d="M338.7 175.4c0 2.1 1.7 3.8 3.8 3.8s3.78-1.7 3.78-3.8-1.7-3.78-3.8-3.78-3.78 1.7-3.78 3.78z"/><path fill="#D8C761" d="M355.54 16.23c0-2.1-1.7-3.8-3.8-3.8-2.08 0-3.78 1.7-3.78 3.8 0 2.1 1.7 3.78 3.8 3.78 2.08.02 3.78-1.68 3.78-3.77z"/><path fill="#8D7155" d="M405.9 80.82c2.1 0 3.8-1.7 3.8-3.8s-1.7-3.78-3.8-3.78-3.77 1.7-3.77 3.8 1.7 3.78 3.78 3.78z"/><path fill="#D8C761" d="M389.9 178.53c0 2.45 2 4.44 4.44 4.44 2.45 0 4.44-2 4.44-4.44 0-2.45-2-4.45-4.44-4.45-2.45 0-4.44 2-4.44 4.45zM293.98 174.7c0 2.46 2 4.45 4.44 4.45 2.45 0 4.44-2 4.44-4.44s-2-4.43-4.44-4.43c-2.45 0-4.44 2-4.44 4.44z"/><path fill="#5EA5C6" d="M365.75 208.62c2.45 0 4.45-2 4.45-4.45s-2-4.44-4.45-4.44-4.44 2-4.44 4.44c0 2.46 2 4.45 4.45 4.45z"/><path fill="#905690" d="M315.85 249.65c0 2.45 2 4.44 4.44 4.44s4.43-2 4.43-4.45-2-4.44-4.44-4.44-4.45 2-4.45 4.45z"/><path fill="#E0C47F" d="M-60.37 161.14c0-1.85-1.5-3.35-3.34-3.35s-3.36 1.5-3.36 3.34 1.5 3.34 3.35 3.34 3.33-1.5 3.33-3.34z"/><path fill="#5EA5C6" d="M-95.32 193.5c0-1.84-1.5-3.34-3.34-3.34-1.85 0-3.35 1.5-3.35 3.34 0 1.84 1.5 3.34 3.34 3.34 1.84 0 3.34-1.5 3.34-3.34z"/><path fill="#D8C761" d="M-85.54 170.72c0-1.84-1.5-3.34-3.35-3.34-1.83 0-3.33 1.5-3.33 3.34 0 1.84 1.5 3.34 3.35 3.34 1.84 0 3.34-1.5 3.34-3.34z"/><path fill="#E0C47F" d="M-54.86 132.57c1.84 0 3.34-1.5 3.34-3.35 0-1.84-1.5-3.34-3.34-3.34s-3.35 1.5-3.35 3.34c0 1.85 1.5 3.35 3.34 3.35z"/><path fill="#72649A" d="M-117.77 134.7c0-1.84-1.5-3.34-3.35-3.34s-3.34 1.5-3.34 3.35 1.5 3.35 3.34 3.35 3.35-1.5 3.35-3.34z"/><path fill="#A0697A" d="M-48.8 104.11c0-1.83-1.5-3.33-3.34-3.33s-3.34 1.5-3.34 3.35 1.5 3.34 3.34 3.34 3.34-1.5 3.34-3.34z"/><path fill="#9FC473" d="M-82.82 134.7c0-1.84-1.5-3.34-3.35-3.34s-3.34 1.5-3.34 3.35 1.5 3.35 3.33 3.35 3.35-1.5 3.35-3.34z"/><path fill="#905690" d="M-126.6 184.53c0-2.1-1.7-3.8-3.78-3.8s-3.78 1.7-3.78 3.8c0 2.1 1.7 3.8 3.78 3.8s3.8-1.7 3.8-3.8z"/><path fill="#8D7155" d="M-117.33 25.36c0-2.1-1.7-3.8-3.8-3.8-2.07 0-3.77 1.7-3.77 3.8s1.7 3.78 3.78 3.78c2.1 0 3.8-1.7 3.8-3.78z"/><path fill="#CF5F93" d="M-34.55 182.45c2.1 0 3.8-1.7 3.8-3.78 0-2.1-1.7-3.8-3.8-3.8s-3.8 1.7-3.8 3.8c0 2.08 1.7 3.78 3.8 3.78z"/><path fill="#AE6762" d="M-56.23 86.16c0-2.1-1.7-3.8-3.78-3.8-2.1 0-3.8 1.7-3.8 3.8s1.7 3.8 3.8 3.8c2.08-.02 3.77-1.7 3.77-3.8z"/><path fill="#9FC473" d="M-78.53 183.2c-2.45 0-4.44 2-4.44 4.46 0 2.44 2 4.44 4.44 4.44s4.45-2 4.45-4.44c0-2.45-2-4.45-4.45-4.45z"/><path fill="#5B87AE" d="M-102.67 213.3c0-2.45-2-4.44-4.44-4.44-2.46 0-4.46 2-4.46 4.44 0 2.45 2 4.45 4.45 4.45 2.44 0 4.43-2 4.43-4.45z"/><path fill="#905690" d="M-47.7 224.36c0-2.45-2-4.45-4.44-4.45-2.45 0-4.44 2-4.44 4.46 0 2.45 2 4.44 4.44 4.44 2.45 0 4.44-2 4.44-4.44z"/><path fill="#CF5F93" d="M-133.15 116.47c0-2.1-1.7-3.8-3.8-3.8-2.07 0-3.77 1.7-3.77 3.8 0 2.08 1.7 3.78 3.78 3.78 2.1 0 3.8-1.7 3.8-3.78z"/><path fill="#D29771" d="M254.04 181.32c0 2.45 2 4.44 4.44 4.44 2.45 0 4.44-2 4.44-4.44s-2-4.44-4.44-4.44c-2.45 0-4.44 2-4.44 4.44zM219.28 181.32c0 2.45 2 4.44 4.44 4.44 2.45 0 4.45-2 4.45-4.44s-2-4.44-4.45-4.44c-2.44 0-4.44 2-4.44 4.44zM235.15 255.87c0-2.45-2-4.44-4.44-4.44-2.44 0-4.44 2-4.44 4.44 0 2.45 2 4.45 4.45 4.45 2.46 0 4.45-2 4.45-4.45zM254.88 258.76c0 1.98 1.62 3.6 3.6 3.6 2 0 3.6-1.62 3.6-3.6 0-2-1.6-3.6-3.6-3.6-1.98 0-3.6 1.6-3.6 3.6zM249.04 227.88c0-1.98-1.62-3.6-3.6-3.6s-3.6 1.62-3.6 3.6 1.6 3.6 3.6 3.6 3.6-1.6 3.6-3.6z"/></g><g><path fill="#D8C761" d="M579.22-21.58h2.5v323.66h-2.5z"/><path fill="#9FC473" d="M594.84-57h2.5v323.67h-2.5z"/><path fill="#D8C761" d="M616.72-35.12h2.5v376.5h-2.5z"/><path fill="#5B87AE" d="M530.27 280.13V-30.1h2.5v307.73h17.3V203.7h14.98v115.8h-2.5V206.18h-10v73.95"/><path fill="#72649A" d="M546.4-25.95h2.5v207.97h-2.5z"/><path fill="#5EA5C6" d="M562.55-21.58h2.5v176.52h-2.5z"/><path fill="#D29771" d="M770.86 328.88V162.03h73.95v-183.6h2.5v186.1h-73.94v164.35"/><path fill="#AE6762" d="M758.7 307V148.72h73.6v-170.3h2.5v172.8h-73.6V307"/><path fill="#A0697A" d="M744.82 293.12V134.84h73.6v-170.3h2.5v172.8h-73.6V293.1"/><path fill="#D8C761" d="M793.07-19.55h2.5V118.4h-2.5z"/><path fill="#D29771" d="M782.96-71h2.5V66.95h-2.5z"/><path fill="#D8C761" d="M804.67-32.46h2.5V105.5h-2.5zM758.63-19.55h2.5V118.4h-2.5z"/><path fill="#D29771" d="M746.88-49.87h2.5V88.08h-2.5zM770.24-53.03h2.5V84.92h-2.5z"/><path fill="#D8C761" d="M717.15 307v-85.68h9.26V-19.55h2.5V223.8h-9.26V307"/><path fill="#9FC473" d="M734.74-19.55h2.5V261.9h-2.5z"/><path fill="#CF5F93" d="M717.15-17.7h2.5v205.55h-2.5z"/><path fill="#D29771" d="M655.58 252.98V139.84h19.9v-165.8h2.5v168.3h-19.9v108.14h6.47v45.8h-2.5v-43.3"/><path fill="#AE6762" d="M661.13 246.5V146.32h21.76v-161.7h2.5v164.2h-21.77V244h9.03v33.2h-2.5v-30.7"/><path fill="#5B87AE" d="M690.76-15.38h2.5v285.63h-2.5z"/><path fill="#5EA5C6" d="M700.02 195.57V-17.7h2.5V193.1h5.55v52.75h-2.5v-50.26"/><path fill="#905690" d="M709.28-17.7h2.5v187.32h-2.5z"/><path fill="#5B87AE" d="M675.5 238.16V157.9H692v2.5H678v75.27h4.63v20.7h-2.48v-18.2"/><path fill="#5B87AE" d="M682.9 218.4v-41.52h9.1v2.5h-6.6v39.02"/><path fill="#5EA5C6" d="M648.17 218.4v-98.55h20.37v-13.1H663V-17.7h2.48v121.94h5.56v18.1h-20.37v96.06"/><path fill="#D29771" d="M601.88 249.88V194h8.33v-60.46h-8.32V-17.7h2.5v148.75h8.33v65.45h-8.33v53.38"/><path fill="#D8C761" d="M580.47 117.34v-2.5h9.55v100.78h-2.5v-98.28"/><path fill="#5EA5C6" d="M553.73 145.5v-34.93h10.07v2.5h-7.57v32.42"/><path fill="#72649A" d="M547.66 170.87v-2.5h12.98v18.23h11.33v54.94h-2.5V189.1h-11.33v-18.23"/><path fill="#9FC473" d="M651.65-13.06h2.5v121.72h-2.5z"/><path fill="#905690" d="M638.9-15.38h2.5v283.62h-2.5z"/><path fill="#AE6762" d="M622.25 209v-55.3h6.7V115h-6.7v-132.7h2.5v130.2h6.7v43.67h-6.7v50.3h5.1v40.14h-2.5V209"/><path fill="#5EA5C6" d="M706.82 209v-2.5h10.1v7.04h-2.5V209"/><path fill="#D8C761" d="M854.5-53.06h2.5v233.4h-2.5z"/><path fill="#905690" d="M876.37-31.2h2.5v286.24h-2.5z"/><path fill="#5EA5C6" d="M915.23 166.64V53.5h19.9V-22h2.5v78h-19.9v108.15h6.48v45.8h-2.48v-43.3"/><path fill="#9FC473" d="M920.8 160.16V60h21.74v-71.44h2.5v73.92h-21.76v95.2h9.03v33.17h-2.5v-30.7"/><path fill="#D8C761" d="M950.4-11.44h2.5V183.9h-2.5z"/><path fill="#8D7155" d="M962-13.76h2.48v97.04h-2.5z"/><path fill="#D8C761" d="M935.14 151.83V71.56h16.52v2.5h-14.03v75.27h4.63v20.7h-2.5v-18.2"/><path fill="#D8C761" d="M942.54 132.06V90.54h9.12v2.5h-6.62v39.02"/><path fill="#72649A" d="M907.83 132.06V33.52h20.36V20.4h-5.56v-34.16h2.5V17.9h5.55V36H910.3v96.06"/><path fill="#AE6762" d="M861.53 163.54v-55.87h8.34V47.2h-8.34v-60.96h2.5V44.7h8.33v65.46h-8.34v53.38"/><path fill="#D8C761" d="M907.83-9.13h2.5v31.45h-2.5z"/><path fill="#5B87AE" d="M898.57-11.44h2.5V181.9h-2.5z"/><path fill="#CF5F93" d="M881.9 122.66v-55.3h6.7V28.7h-6.7v-42.46h2.5V26.2h6.7v43.65h-6.7v50.32h5.1v40.13H887v-37.64"/><path fill="#905690" d="M503.93 229.18v-85.7h9.26V-7.1h2.5V146h-9.27v83.2"/><path fill="#CF5F93" d="M521.53-7.1h2.5v191.18h-2.5z"/><path fill="#A0697A" d="M503.93-5.25h2.5v115.27h-2.5z"/><path fill="#5B87AE" d="M442.37 175.15V62h19.9v-75.5h2.5v78h-19.9v108.15h6.47v45.8h-2.5v-43.3"/><path fill="#5EA5C6" d="M447.92 168.67V68.5h21.76V-2.95h2.5V71H450.4v95.17h9.02v33.2h-2.5v-30.7"/><path fill="#9FC473" d="M477.55-2.94h2.5V192.4h-2.5z"/><path fill="#E0C47F" d="M486.8 117.74v-123h2.5v120.5h5.56V168h-2.5v-50.26"/><path fill="#AE6762" d="M496.06-5.25h2.5V91.8h-2.5z"/><path fill="#D8C761" d="M462.27 160.33V80.07h16.53v2.5h-14.03v75.27h4.62v20.7h-2.5v-18.2"/><path fill="#9FC473" d="M469.68 140.57V99.05h9.12v2.5h-6.63v39.02"/><path fill="#72649A" d="M434.96 140.57V42.02h20.37v-13.1h-5.56V-5.26h2.5V26.4h5.55v18.12h-20.37v96.05"/><path fill="#8D7155" d="M434.96-.62h2.5v31.45h-2.5z"/><path fill="#905690" d="M425.7-2.94h2.5V190.4h-2.5z"/><path fill="#CF5F93" d="M419.14-71h2.5v193.35h-2.5z"/><path fill="#E0C47F" d="M493.6 131.17v-2.5h10.1v7.04h-2.48v-4.53"/><path fill="#D29771" d="M814.56 265.08v-62.64h14.35v-39.17h2.5v41.66h-14.35v60.15M801.5 162.9h2.5v71.47h-2.5zM814.56 163.54h2.5v23.24h-2.5zM786.78 261.08V211h4.17v-48.1h2.5v50.6h-4.17v47.58M779.8 163.54h2.5v23.24h-2.5z"/><g><path fill="#AE6762" d="M756.6 309.45c0 1.84 1.5 3.34 3.36 3.34 1.84 0 3.34-1.5 3.34-3.35 0-1.84-1.5-3.34-3.34-3.34-1.85 0-3.35 1.5-3.35 3.35z"/><path fill="#5EA5C6" d="M703.48 247.55c0 1.84 1.5 3.34 3.34 3.34s3.35-1.5 3.35-3.35-1.5-3.35-3.35-3.35-3.34 1.5-3.34 3.35z"/><path fill="#AE6762" d="M675.22 279.3c0-1.86-1.5-3.36-3.35-3.36s-3.34 1.5-3.34 3.35c0 1.83 1.5 3.33 3.34 3.33s3.35-1.5 3.35-3.34zM628.88 245.27c-1.85 0-3.35 1.5-3.35 3.35 0 1.84 1.5 3.34 3.35 3.34s3.34-1.5 3.34-3.34c0-1.85-1.5-3.35-3.34-3.35z"/><path fill="#D29771" d="M606.47 252.2c0-1.83-1.5-3.33-3.35-3.33-1.84 0-3.34 1.5-3.34 3.34 0 1.85 1.5 3.35 3.35 3.35 1.84 0 3.34-1.5 3.34-3.34z"/><path fill="#D8C761" d="M588.77 221.12c1.85 0 3.35-1.5 3.35-3.34s-1.5-3.35-3.35-3.35-3.34 1.5-3.34 3.35 1.5 3.34 3.35 3.34z"/><path fill="#5EA5C6" d="M567.15 157.04c0-1.85-1.5-3.35-3.35-3.35s-3.34 1.5-3.34 3.34c0 1.84 1.5 3.34 3.34 3.34s3.35-1.5 3.35-3.34z"/><path fill="#5B87AE" d="M685 258.46c0-1.85-1.5-3.35-3.35-3.35s-3.34 1.5-3.34 3.36c0 1.84 1.5 3.34 3.35 3.34s3.34-1.5 3.34-3.34z"/><path fill="#5EA5C6" d="M715.68 218.98c1.84 0 3.34-1.5 3.34-3.35s-1.5-3.34-3.34-3.34-3.35 1.5-3.35 3.33 1.5 3.35 3.35 3.35zM652.76 220.5c0-1.85-1.5-3.35-3.34-3.35s-3.34 1.5-3.34 3.35c0 1.84 1.5 3.34 3.34 3.34s3.34-1.5 3.34-3.34z"/><path fill="#CF5F93" d="M718.4 193.25c1.84 0 3.34-1.5 3.34-3.35s-1.5-3.34-3.34-3.34-3.35 1.5-3.35 3.34 1.5 3.35 3.35 3.35z"/><path fill="#5B87AE" d="M684.37 216.53c-1.84 0-3.34 1.5-3.34 3.34 0 1.85 1.5 3.35 3.34 3.35 1.84 0 3.34-1.5 3.34-3.35 0-1.84-1.5-3.34-3.33-3.34z"/><path fill="#5EA5C6" d="M558.33 147.58c0-1.84-1.5-3.34-3.35-3.34s-3.34 1.5-3.34 3.34 1.5 3.35 3.34 3.35 3.35-1.5 3.35-3.35z"/><path fill="#A0697A" d="M746.07 298.82c2.1 0 3.8-1.7 3.8-3.8s-1.7-3.77-3.8-3.77-3.8 1.7-3.8 3.78 1.7 3.8 3.8 3.8z"/><path fill="#905690" d="M643.95 270.94c0-2.1-1.7-3.8-3.8-3.8-2.07 0-3.77 1.7-3.77 3.8 0 2.1 1.7 3.8 3.78 3.8 2.1 0 3.8-1.7 3.8-3.8z"/><path fill="#9FC473" d="M652.9 114.93c2.08 0 3.78-1.7 3.78-3.8 0-2.07-1.7-3.77-3.8-3.77s-3.77 1.7-3.77 3.8c0 2.07 1.7 3.77 3.8 3.77zM736 267.6c2.07 0 3.77-1.68 3.77-3.77 0-2.1-1.7-3.8-3.78-3.8-2.1 0-3.8 1.7-3.8 3.8 0 2.1 1.7 3.8 3.8 3.8z"/><path fill="#905690" d="M714.3 171.95c0-2.1-1.7-3.8-3.77-3.8-2.1 0-3.8 1.7-3.8 3.8 0 2.08 1.7 3.78 3.8 3.78 2.08 0 3.78-1.7 3.78-3.78z"/><path fill="#D8C761" d="M790.53 120.94c0 2.1 1.7 3.8 3.8 3.8s3.77-1.7 3.77-3.8c0-2.08-1.7-3.78-3.78-3.78s-3.8 1.7-3.8 3.78z"/><path fill="#D29771" d="M776.55 331.97c0-2.45-2-4.44-4.44-4.44-2.44 0-4.43 2-4.43 4.44 0 2.45 2 4.44 4.44 4.44 2.46.02 4.45-1.98 4.45-4.43z"/><path fill="#5B87AE" d="M692 268.38c-2.44 0-4.43 2-4.43 4.44s2 4.44 4.44 4.44c2.46 0 4.45-2 4.45-4.44s-2-4.44-4.44-4.44z"/><path fill="#9FC473" d="M600.53 270.25c0-2.45-2-4.45-4.44-4.45-2.46 0-4.45 2-4.45 4.45s2 4.44 4.44 4.44c2.44 0 4.43-2 4.43-4.45z"/><path fill="#72649A" d="M575.16 245.05c0-2.45-2-4.45-4.44-4.45s-4.44 2-4.44 4.45 2 4.44 4.44 4.44 4.44-2 4.44-4.45z"/><path fill="#5B87AE" d="M568.25 323.32c0-2.45-2-4.44-4.45-4.44s-4.44 2-4.44 4.44 2 4.44 4.44 4.44 4.45-2 4.45-4.44z"/><path fill="#72649A" d="M547.66 180.94c-2.45 0-4.45 2-4.45 4.44s2 4.45 4.46 4.45c2.45 0 4.44-2 4.44-4.45s-2-4.44-4.44-4.44z"/><path fill="#D8C761" d="M585.25 305.9c0-2.45-2-4.45-4.45-4.45s-4.44 2-4.44 4.45 2 4.44 4.44 4.44c2.45 0 4.45-2 4.45-4.44z"/><path fill="#D29771" d="M663.42 304.16c2.45 0 4.45-2 4.45-4.45 0-2.44-2-4.43-4.45-4.43s-4.44 2-4.44 4.44c0 2.47 2 4.46 4.44 4.46z"/><path fill="#D8C761" d="M722.84 309.52c0-2.45-2-4.44-4.44-4.44s-4.44 2-4.44 4.44c0 2.45 2 4.44 4.44 4.44s4.44-2 4.44-4.44zM622.4 344.57c0-2.45-2-4.44-4.44-4.44-2.45 0-4.44 2-4.44 4.44 0 2.45 2 4.44 4.44 4.44 2.45 0 4.44-1.98 4.44-4.43z"/><path fill="#D29771" d="M788 69.5c0-2.1-1.7-3.8-3.8-3.8s-3.77 1.7-3.77 3.8c0 2.07 1.7 3.77 3.78 3.77s3.8-1.7 3.8-3.78z"/><path fill="#D8C761" d="M805.92 111.81c2.1.02 3.8-1.68 3.8-3.77s-1.7-3.8-3.8-3.8-3.78 1.7-3.78 3.8 1.7 3.78 3.78 3.78zM759.88 124.73c2.08 0 3.78-1.7 3.78-3.8 0-2.07-1.7-3.77-3.78-3.77-2.1 0-3.8 1.7-3.8 3.8 0 2.07 1.7 3.77 3.8 3.77z"/><path fill="#D29771" d="M748.12 94.4c2.1 0 3.8-1.7 3.8-3.78s-1.7-3.78-3.8-3.78-3.78 1.7-3.78 3.78 1.7 3.8 3.78 3.8zM771.48 91.25c2.1 0 3.8-1.7 3.8-3.8s-1.7-3.78-3.8-3.78-3.78 1.7-3.78 3.8 1.7 3.78 3.78 3.78z"/><path fill="#9FC473" d="M931.52 189.6c-1.84 0-3.34 1.5-3.34 3.35s1.5 3.35 3.34 3.35 3.35-1.5 3.35-3.35c0-1.84-1.5-3.34-3.35-3.34z"/><path fill="#CF5F93" d="M885.2 162.28c0 1.85 1.5 3.35 3.33 3.35s3.34-1.5 3.34-3.35-1.5-3.34-3.34-3.34-3.34 1.5-3.34 3.34z"/><path fill="#AE6762" d="M862.78 168.6c1.84 0 3.34-1.5 3.34-3.35s-1.5-3.34-3.34-3.34c-1.84 0-3.34 1.5-3.34 3.35s1.5 3.34 3.34 3.34z"/><path fill="#D8C761" d="M937.96 172.12c0 1.84 1.5 3.34 3.34 3.34s3.35-1.5 3.35-3.34c0-1.84-1.5-3.34-3.34-3.34s-3.34 1.5-3.34 3.34z"/><path fill="#72649A" d="M909.07 137.5c1.85 0 3.35-1.5 3.35-3.34s-1.5-3.34-3.35-3.34-3.34 1.5-3.34 3.34 1.5 3.34 3.34 3.34z"/><path fill="#D8C761" d="M940.68 134.16c0 1.84 1.5 3.34 3.35 3.34 1.84 0 3.34-1.5 3.34-3.34s-1.5-3.34-3.34-3.34c-1.85 0-3.35 1.5-3.35 3.34z"/><path fill="#5B87AE" d="M896.03 183.98c0 2.1 1.7 3.8 3.78 3.8 2.1 0 3.8-1.7 3.8-3.8 0-2.08-1.7-3.78-3.8-3.78-2.07 0-3.77 1.7-3.77 3.78z"/><path fill="#D8C761" d="M912.86 24.8c0-2.08-1.7-3.78-3.8-3.78s-3.77 1.7-3.77 3.8c0 2.08 1.68 3.77 3.77 3.77s3.8-1.7 3.8-3.8z"/><path fill="#8D7155" d="M963.23 89.4c2.1 0 3.8-1.7 3.8-3.8 0-2.08-1.7-3.77-3.8-3.77-2.08 0-3.78 1.7-3.78 3.78 0 2.1 1.7 3.8 3.78 3.8z"/><path fill="#D8C761" d="M947.22 187.1c0 2.46 2 4.45 4.44 4.45 2.45 0 4.45-2 4.45-4.44 0-2.44-2-4.44-4.44-4.44-2.45 0-4.44 2-4.44 4.45zM851.3 183.3c0 2.44 2 4.43 4.44 4.43s4.45-2 4.45-4.44c0-2.46-2-4.46-4.46-4.46s-4.44 2-4.44 4.45z"/><path fill="#5EA5C6" d="M923.08 217.2c2.44 0 4.44-2 4.44-4.44 0-2.45-2-4.45-4.44-4.45s-4.45 2-4.45 4.45c0 2.46 2 4.45 4.45 4.45z"/><path fill="#905690" d="M873.17 258.23c0 2.45 2 4.45 4.45 4.45 2.44 0 4.44-2 4.44-4.45s-2-4.44-4.44-4.44c-2.46 0-4.45 1.98-4.45 4.43z"/><path fill="#E0C47F" d="M496.95 169.72c0-1.85-1.5-3.35-3.34-3.35-1.83 0-3.34 1.5-3.34 3.35 0 1.84 1.5 3.34 3.35 3.34s3.35-1.5 3.35-3.34z"/><path fill="#5EA5C6" d="M462 202.08c0-1.84-1.5-3.34-3.34-3.34s-3.35 1.5-3.35 3.34c0 1.84 1.5 3.34 3.36 3.34s3.34-1.5 3.34-3.34z"/><path fill="#D8C761" d="M471.78 179.3c0-1.84-1.5-3.34-3.34-3.34-1.85 0-3.35 1.5-3.35 3.34s1.5 3.34 3.34 3.34c1.84 0 3.34-1.5 3.34-3.34z"/><path fill="#E0C47F" d="M502.46 141.15c1.85 0 3.35-1.5 3.35-3.35s-1.5-3.34-3.34-3.34-3.34 1.5-3.34 3.34 1.5 3.35 3.34 3.35z"/><path fill="#72649A" d="M439.55 143.3c0-1.86-1.5-3.36-3.34-3.36-1.84 0-3.33 1.5-3.33 3.35 0 1.83 1.5 3.33 3.34 3.33 1.85 0 3.35-1.5 3.35-3.34z"/><path fill="#A0697A" d="M508.53 112.7c0-1.85-1.5-3.35-3.35-3.35-1.84 0-3.34 1.5-3.34 3.35 0 1.84 1.5 3.34 3.34 3.34 1.85 0 3.35-1.5 3.35-3.35z"/><path fill="#9FC473" d="M474.5 143.3c0-1.86-1.5-3.36-3.34-3.36s-3.35 1.5-3.35 3.35c0 1.83 1.5 3.33 3.36 3.33s3.34-1.5 3.34-3.34z"/><path fill="#905690" d="M430.73 193.1c0-2.08-1.7-3.78-3.78-3.78s-3.8 1.7-3.8 3.8 1.7 3.78 3.8 3.78 3.78-1.7 3.78-3.8z"/><path fill="#8D7155" d="M440 33.94c0-2.1-1.7-3.8-3.8-3.8s-3.78 1.7-3.78 3.8c0 2.1 1.7 3.78 3.8 3.78s3.77-1.7 3.77-3.78z"/><path fill="#CF5F93" d="M522.77 191.03c2.1 0 3.8-1.7 3.8-3.78 0-2.1-1.7-3.8-3.8-3.8-2.1 0-3.78 1.7-3.78 3.8 0 2.08 1.7 3.78 3.77 3.78z"/><path fill="#AE6762" d="M501.1 94.74c0-2.1-1.7-3.8-3.8-3.8s-3.77 1.7-3.77 3.8 1.7 3.8 3.78 3.8 3.8-1.7 3.8-3.8z"/><path fill="#9FC473" d="M478.8 191.8c-2.45 0-4.45 2-4.45 4.44 0 2.44 2 4.44 4.45 4.44s4.44-2 4.44-4.44c0-2.45-2-4.45-4.44-4.45z"/><path fill="#5B87AE" d="M454.65 221.88c0-2.45-2-4.44-4.44-4.44-2.44 0-4.43 2-4.43 4.44 0 2.45 2 4.45 4.44 4.45 2.46 0 4.45-2 4.45-4.45z"/><path fill="#905690" d="M509.63 232.94c0-2.45-2-4.45-4.45-4.45-2.44 0-4.44 2-4.44 4.44 0 2.45 2 4.44 4.44 4.44 2.45 0 4.45-2 4.45-4.44z"/><path fill="#CF5F93" d="M424.17 125.05c0-2.1-1.7-3.8-3.78-3.8-2.1 0-3.8 1.7-3.8 3.8 0 2.08 1.7 3.78 3.8 3.78 2.08 0 3.77-1.7 3.77-3.8z"/><path fill="#D29771" d="M811.36 189.9c0 2.45 2 4.44 4.45 4.44s4.45-2 4.45-4.44c0-2.45-2-4.44-4.44-4.44s-4.44 2-4.44 4.44zM776.6 189.9c0 2.45 2 4.44 4.45 4.44s4.44-2 4.44-4.44c0-2.45-2-4.44-4.45-4.44s-4.44 2-4.44 4.44zM792.47 264.45c0-2.45-2-4.44-4.44-4.44-2.45 0-4.44 2-4.44 4.45s1.98 4.44 4.43 4.44c2.45 0 4.44-2 4.44-4.45zM812.2 267.34c0 2 1.62 3.6 3.6 3.6s3.6-1.6 3.6-3.6-1.6-3.6-3.6-3.6-3.6 1.6-3.6 3.6zM806.36 236.47c0-2-1.62-3.6-3.6-3.6-2 0-3.6 1.6-3.6 3.6 0 1.98 1.6 3.6 3.6 3.6 1.98 0 3.6-1.62 3.6-3.6z"/></g></g></g><g clip-path="url(#b)"><path fill="#D8C761" d="M974.2-14.96h2.48V308.7h-2.5z"/><path fill="#9FC473" d="M989.82-50.37h2.5V273.3h-2.5z"/><path fill="#D8C761" d="M1011.7-28.5h2.48V348h-2.5z"/><path fill="#D29771" d="M1165.84 335.5V168.65h73.94v-183.6h2.5v186.1h-73.95V335.5"/><path fill="#AE6762" d="M1153.68 313.63V155.35h73.6v-170.3h2.5v172.8h-73.6v155.78"/><path fill="#A0697A" d="M1139.8 299.74V141.46h73.6v-170.3h2.5v172.8h-73.6v155.78"/><path fill="#D8C761" d="M1188.04-12.92h2.5v137.95h-2.5z"/><path fill="#D29771" d="M1177.94-64.38h2.5V73.57h-2.5z"/><path fill="#D8C761" d="M1199.65-25.84h2.5V112.1h-2.5zM1153.6-12.92h2.5v137.95h-2.5z"/><path fill="#D29771" d="M1141.85-43.24h2.5V94.7h-2.5zM1165.2-46.4h2.5V91.53h-2.5z"/><path fill="#D8C761" d="M1112.12 313.63v-85.7h9.26V-12.9h2.5v243.36h-9.26v83.2"/><path fill="#9FC473" d="M1129.7-12.92h2.5v281.46h-2.5z"/><path fill="#CF5F93" d="M1112.12-11.07h2.5v205.54h-2.5z"/><path fill="#D29771" d="M1050.55 259.6V146.47h19.9v-165.8h2.5v168.3h-19.9V257.1h6.48v45.8h-2.5v-43.3"/><path fill="#AE6762" d="M1056.1 253.12V152.95h21.77V-8.75h2.5v164.2h-21.77v95.18h9.03v33.18h-2.5v-30.68"/><path fill="#5B87AE" d="M1085.73-8.76h2.5v285.63h-2.5z"/><path fill="#5EA5C6" d="M1095 202.2V-11.07h2.5V199.7h5.54v52.76h-2.5V202.2"/><path fill="#905690" d="M1104.25-11.07h2.5v187.3h-2.5z"/><path fill="#5B87AE" d="M1070.46 244.8V164.5h16.52v2.5h-14.03v75.27h4.63v20.68h-2.5v-18.2"/><path fill="#5B87AE" d="M1077.87 225.02V183.5h9.1v2.5h-6.6v39.02"/><path fill="#5EA5C6" d="M1043.15 225.02v-98.54h20.37v-13.12h-5.56V-11.07h2.5v121.94h5.55v18.1h-20.36v96.05"/><path fill="#D29771" d="M996.85 256.5v-55.87h8.33v-60.47h-8.33V-11.07h2.5v148.74h8.33v65.45h-8.33v53.38"/><path fill="#D8C761" d="M975.44 123.96v-2.5H985v100.8h-2.5v-98.3"/><path fill="#9FC473" d="M1046.62-6.44h2.5v121.72h-2.5z"/><path fill="#905690" d="M1033.9-8.76h2.5v283.62h-2.5z"/><path fill="#AE6762" d="M1017.22 215.62v-55.3h6.7v-38.67h-6.7V-11.07h2.5v130.22h6.7v43.66h-6.7v50.33h5.1v40.13h-2.5v-37.64"/><path fill="#5EA5C6" d="M1101.8 215.62v-2.5h10.1v7.04h-2.5v-4.54"/><path fill="#D8C761" d="M1249.47-46.44h2.5v233.4h-2.5z"/><path fill="#905690" d="M1271.34-24.56h2.5v286.23h-2.5z"/><path fill="#AE6762" d="M1256.5 170.17V114.3h8.34V53.82h-8.33V-7.13h2.5v58.47h8.33v65.45H1259v53.37"/><path fill="#CF5F93" d="M1276.87 129.3V73.97h6.72V35.3h-6.73V-7.12h2.5v39.95h6.7v43.66h-6.7v50.3h5.1v40.15h-2.5V129.3"/><path fill="#D29771" d="M1209.53 271.7v-62.64h14.35V169.9h2.5v41.65h-14.35v60.15M1196.48 169.53h2.5V241h-2.5zM1209.53 170.17h2.5v23.24h-2.5zM1181.76 267.7v-50.08h4.16v-48.1h2.5v50.6h-4.17v47.6M1174.77 170.17h2.5v23.24h-2.5z"/><g><path fill="#AE6762" d="M1151.6 316.07c0 1.85 1.5 3.35 3.33 3.35s3.34-1.5 3.34-3.35c0-1.84-1.5-3.34-3.34-3.34s-3.34 1.5-3.34 3.34z"/><path fill="#5EA5C6" d="M1098.45 254.17c0 1.85 1.5 3.35 3.35 3.35s3.34-1.5 3.34-3.35-1.5-3.34-3.34-3.34-3.35 1.5-3.35 3.34z"/><path fill="#AE6762" d="M1070.2 285.9c0-1.83-1.5-3.33-3.36-3.33-1.84 0-3.34 1.5-3.34 3.34 0 1.85 1.5 3.35 3.34 3.35 1.85 0 3.35-1.5 3.35-3.34zM1023.85 251.9c-1.84 0-3.34 1.5-3.34 3.34s1.5 3.34 3.35 3.34 3.34-1.5 3.34-3.34-1.5-3.34-3.35-3.34z"/><circle cx="998.1" cy="258.83" r="3.34" fill="#D29771"/><path fill="#D8C761" d="M983.75 227.74c1.84 0 3.34-1.5 3.34-3.34s-1.5-3.35-3.35-3.35-3.34 1.5-3.34 3.35 1.5 3.34 3.35 3.34z"/><path fill="#5B87AE" d="M1079.97 265.08c0-1.84-1.5-3.34-3.35-3.34s-3.34 1.5-3.34 3.34c0 1.84 1.5 3.34 3.34 3.34s3.35-1.5 3.35-3.34z"/><path fill="#5EA5C6" d="M1110.65 225.6c1.84 0 3.34-1.5 3.34-3.34s-1.5-3.35-3.35-3.35-3.35 1.5-3.35 3.36 1.5 3.34 3.35 3.34zM1047.74 227.12c0-1.85-1.5-3.35-3.35-3.35s-3.35 1.5-3.35 3.35c0 1.84 1.5 3.34 3.34 3.34s3.34-1.5 3.34-3.34z"/><path fill="#CF5F93" d="M1113.37 199.87c1.84 0 3.34-1.5 3.34-3.35 0-1.84-1.5-3.34-3.33-3.34-1.84 0-3.34 1.5-3.34 3.35 0 1.84 1.5 3.34 3.34 3.34z"/><path fill="#5B87AE" d="M1079.34 223.15c-1.84 0-3.34 1.5-3.34 3.35 0 1.84 1.5 3.34 3.34 3.34 1.85 0 3.35-1.5 3.35-3.35s-1.5-3.35-3.36-3.35z"/><path fill="#A0697A" d="M1141.04 305.44c2.1 0 3.8-1.7 3.8-3.78 0-2.1-1.7-3.8-3.8-3.8-2.08 0-3.78 1.7-3.78 3.8 0 2.08 1.7 3.78 3.78 3.78z"/><path fill="#905690" d="M1038.92 277.56c0-2.08-1.7-3.78-3.8-3.78-2.07 0-3.77 1.7-3.77 3.78s1.7 3.8 3.78 3.8c2.1 0 3.8-1.7 3.8-3.8z"/><path fill="#9FC473" d="M1047.87 121.56c2.08 0 3.78-1.7 3.78-3.8 0-2.08-1.7-3.78-3.8-3.78-2.07 0-3.77 1.7-3.77 3.8 0 2.08 1.7 3.78 3.8 3.78zM1130.96 274.24c2.1 0 3.8-1.7 3.8-3.8 0-2.08-1.7-3.77-3.8-3.77-2.1 0-3.8 1.7-3.8 3.78 0 2.1 1.7 3.8 3.8 3.8z"/><path fill="#905690" d="M1109.3 178.57c0-2.1-1.7-3.8-3.8-3.8s-3.8 1.7-3.8 3.8c0 2.1 1.7 3.78 3.8 3.78s3.8-1.7 3.8-3.78z"/><path fill="#D8C761" d="M1185.5 127.57c0 2.1 1.7 3.78 3.8 3.78 2.08 0 3.77-1.7 3.77-3.78 0-2.1-1.7-3.8-3.78-3.8-2.1 0-3.8 1.7-3.8 3.8z"/><path fill="#D29771" d="M1171.52 338.6c0-2.45-2-4.45-4.44-4.45-2.45 0-4.44 2-4.44 4.45s2 4.44 4.44 4.44c2.45 0 4.44-2 4.44-4.44z"/><path fill="#5B87AE" d="M1086.98 275c-2.45 0-4.44 2-4.44 4.44 0 2.45 2 4.45 4.44 4.45 2.45 0 4.44-2 4.44-4.46 0-2.45-2-4.44-4.44-4.44z"/><path fill="#9FC473" d="M995.5 276.87c0-2.45-2-4.44-4.44-4.44-2.44 0-4.44 2-4.44 4.44 0 2.45 2 4.44 4.44 4.44 2.45 0 4.45-1.98 4.45-4.43z"/><path fill="#D8C761" d="M980.22 312.52c0-2.45-2-4.44-4.44-4.44s-4.45 2-4.45 4.44c0 2.45 2 4.44 4.45 4.44s4.44-2 4.44-4.44z"/><path fill="#D29771" d="M1058.4 310.78c2.45 0 4.44-2 4.44-4.44 0-2.45-2-4.44-4.44-4.44-2.45 0-4.45 2-4.45 4.44 0 2.45 2 4.44 4.45 4.44z"/><path fill="#D8C761" d="M1117.8 316.14c0-2.45-1.98-4.44-4.43-4.44-2.45 0-4.44 2-4.44 4.44 0 2.45 2 4.45 4.44 4.45 2.45-.02 4.44-2 4.44-4.46zM1017.38 351.2c0-2.46-2-4.45-4.44-4.45-2.45 0-4.45 2-4.45 4.44 0 2.44 2 4.43 4.44 4.43 2.44 0 4.44-2 4.44-4.44z"/><path fill="#D29771" d="M1182.97 76.1c0-2.08-1.7-3.78-3.8-3.78s-3.77 1.7-3.77 3.8c0 2.08 1.7 3.77 3.78 3.77s3.8-1.7 3.8-3.8z"/><path fill="#D8C761" d="M1200.9 118.44c2.08 0 3.78-1.7 3.78-3.8s-1.7-3.77-3.8-3.77-3.77 1.7-3.77 3.78 1.7 3.8 3.8 3.8zM1154.85 131.35c2.1 0 3.8-1.7 3.8-3.78 0-2.1-1.7-3.8-3.8-3.8-2.1 0-3.8 1.7-3.8 3.8 0 2.1 1.7 3.78 3.8 3.78z"/><path fill="#D29771" d="M1143.1 101.03c2.08 0 3.78-1.7 3.78-3.78 0-2.1-1.7-3.8-3.78-3.8-2.1 0-3.8 1.7-3.8 3.8 0 2.08 1.7 3.78 3.8 3.78zM1166.46 97.87c2.08 0 3.78-1.7 3.78-3.8s-1.7-3.77-3.78-3.77c-2.1 0-3.8 1.7-3.8 3.78s1.7 3.8 3.8 3.8z"/><circle cx="1283.5" cy="168.91" r="3.34" fill="#CF5F93"/><path fill="#AE6762" d="M1257.75 175.22c1.85 0 3.34-1.5 3.34-3.35s-1.5-3.34-3.35-3.34c-1.84 0-3.34 1.5-3.34 3.34s1.5 3.35 3.35 3.35z"/><path fill="#D8C761" d="M1246.27 189.9c0 2.46 2 4.45 4.44 4.45 2.46 0 4.46-2 4.46-4.44s-2-4.43-4.45-4.43c-2.43 0-4.43 2-4.43 4.44z"/><path fill="#905690" d="M1268.14 264.86c0 2.45 2 4.44 4.45 4.44s4.43-2 4.43-4.44c0-2.45-2-4.44-4.44-4.44s-4.45 2-4.45 4.44z"/><path fill="#D29771" d="M1206.34 196.53c0 2.45 2 4.44 4.44 4.44 2.45 0 4.44-2 4.44-4.44s-2-4.45-4.44-4.45c-2.45 0-4.44 2-4.44 4.44zM1171.58 196.53c0 2.45 2 4.44 4.44 4.44 2.45 0 4.44-2 4.44-4.44s-2-4.45-4.44-4.45c-2.45 0-4.44 2-4.44 4.44zM1187.44 271.08c0-2.45-2-4.45-4.44-4.45-2.45 0-4.44 2-4.44 4.45s2 4.44 4.44 4.44c2.45 0 4.44-2 4.44-4.44zM1207.18 273.96c0 2 1.6 3.6 3.6 3.6s3.6-1.6 3.6-3.6c0-1.98-1.6-3.6-3.6-3.6s-3.6 1.62-3.6 3.6zM1201.33 243.1c0-2-1.6-3.6-3.6-3.6s-3.6 1.6-3.6 3.6 1.6 3.6 3.6 3.6 3.6-1.63 3.6-3.6z"/></g></g></svg>