<svg xmlns="http://www.w3.org/2000/svg" width="708" height="354" xmlns:xlink="http://www.w3.org/1999/xlink" viewBox="0 0 141.6 70.8"><defs><path id="a" fill="#fff" d="M0 0l11.8 5.9L0 11.8z"/></defs><g id="b"><use x="-11.8" y="-5.9" fill-opacity=".31" transform="scale(-1 1)" xlink:href="#a"/><use fill-opacity=".47" xlink:href="#a"/><use x="-11.8" y="5.9" fill-opacity=".47" transform="scale(-1 1)" xlink:href="#a"/><use y="11.8" fill-opacity=".47" xlink:href="#a"/><use x="-11.8" y="17.7" fill-opacity=".63" transform="scale(-1 1)" xlink:href="#a"/><use y="23.6" fill-opacity=".31" xlink:href="#a"/><use x="-11.8" y="29.5" fill-opacity=".31" transform="scale(-1 1)" xlink:href="#a"/><use x="11.8" y="-5.9" fill-opacity=".47" xlink:href="#a"/><use x="-23.6" fill-opacity=".63" transform="scale(-1 1)" xlink:href="#a"/><use x="11.8" y="5.9" fill-opacity=".47" xlink:href="#a"/><use x="-23.6" y="11.8" fill-opacity=".31" transform="scale(-1 1)" xlink:href="#a"/><use x="11.8" y="17.7" fill-opacity=".16" xlink:href="#a"/><use x="-23.6" y="23.6" fill-opacity=".31" transform="scale(-1 1)" xlink:href="#a"/><use x="11.8" y="29.5" fill-opacity=".47" xlink:href="#a"/><use x="-35.4" y="-5.9" fill-opacity=".31" transform="scale(-1 1)" xlink:href="#a"/><use x="23.6" fill-opacity=".31" xlink:href="#a"/><use x="-35.4" y="5.9" fill-opacity=".47" transform="scale(-1 1)" xlink:href="#a"/><use x="23.6" y="11.8" fill-opacity=".31" xlink:href="#a"/><use x="-35.4" y="17.7" fill-opacity=".16" transform="scale(-1 1)" xlink:href="#a"/><use x="23.6" y="23.6" fill-opacity=".31" xlink:href="#a"/><use x="-35.4" y="29.5" fill-opacity=".31" transform="scale(-1 1)" xlink:href="#a"/><use x="35.4" y="-5.9" fill-opacity=".31" xlink:href="#a"/><use x="-47.2" fill-opacity=".31" transform="scale(-1 1)" xlink:href="#a"/><use x="35.4" y="5.9" fill-opacity=".16" xlink:href="#a"/><use x="-47.2" y="11.8" fill-opacity=".47" transform="scale(-1 1)" xlink:href="#a"/><use x="35.4" y="17.7" fill-opacity=".47" xlink:href="#a"/><use x="-47.2" y="23.6" fill-opacity=".16" transform="scale(-1 1)" xlink:href="#a"/><use x="35.4" y="29.5" fill-opacity=".31" xlink:href="#a"/><use x="-59" y="-5.9" fill-opacity=".47" transform="scale(-1 1)" xlink:href="#a"/><use x="47.2" fill-opacity=".63" xlink:href="#a"/><use x="-59" y="5.9" fill-opacity=".16" transform="scale(-1 1)" xlink:href="#a"/><use x="47.2" y="11.8" fill-opacity=".31" xlink:href="#a"/><use x="-59" y="17.7" fill-opacity=".47" transform="scale(-1 1)" xlink:href="#a"/><use x="47.2" y="23.6" fill-opacity=".16" xlink:href="#a"/><use x="-59" y="29.5" fill-opacity=".47" transform="scale(-1 1)" xlink:href="#a"/><use x="59" y="-5.9" fill-opacity=".31" xlink:href="#a"/><use x="-70.8" fill-opacity=".31" transform="scale(-1 1)" xlink:href="#a"/><use x="59" y="5.9" fill-opacity=".63" xlink:href="#a"/><use x="-70.8" y="11.8" fill-opacity=".31" transform="scale(-1 1)" xlink:href="#a"/><use x="59" y="17.7" fill-opacity=".47" xlink:href="#a"/><use x="-70.8" y="23.6" fill-opacity=".31" transform="scale(-1 1)" xlink:href="#a"/><use x="59" y="29.5" fill-opacity=".31" xlink:href="#a"/></g><use x="-70.8" y="35.4" transform="scale(-1 1)" xlink:href="#b"/><use x="-141.6" y="-23.6" transform="scale(-1)" xlink:href="#b"/><use x="70.8" y="-47.2" transform="scale(1 -1)" xlink:href="#b"/><use x="70.8" y="-82.6" transform="scale(1 -1)" xlink:href="#b"/></svg>