<svg xmlns="http://www.w3.org/2000/svg" xmlns:xlink="http://www.w3.org/1999/xlink" version="1.1" x="0" y="0" width="150.67" height="208.36" viewBox="0 0 150.67 208.36" enable-background="new 0 0 150.667 208.355" xml:space="preserve" preserveAspectRatio="xMinYMin meet"><g id="fries"><linearGradient id="SVGID_1_" gradientUnits="userSpaceOnUse" x1="0.82" y1="125.35" x2="146.85" y2="125.35"><stop offset="0" stop-color="#F77943"/><stop offset="0.48" stop-color="#F77943"/><stop offset="0.52" stop-color="#E8723E"/><stop offset="1" stop-color="#E8723E"/></linearGradient><path fill="url(#SVGID_1_)" d="M146.85 78.86c-9.06-27.89-46.95-29.84-73.02-36.51C47.77 49.02 9.88 50.97 0.82 78.86c3.86 20.04 26.28 122.33 27.67 129.28C37.7 209.84 53.5 201 73.83 201c21.33-1.02 36.82 8.82 45.26 7.17C120.68 198.54 142.99 98.9 146.85 78.86z"/><linearGradient id="SVGID_2_" gradientUnits="userSpaceOnUse" x1="0.82" y1="69.94" x2="146.85" y2="69.94"><stop offset="0" stop-color="#E36F3D"/><stop offset="0.48" stop-color="#E36F3D"/><stop offset="0.52" stop-color="#D96A39"/><stop offset="1" stop-color="#D96A39"/></linearGradient><path fill="url(#SVGID_2_)" d="M146.85 78.86C136.78 47.66 99.46 38.59 74.14 35.98 47.93 38.59 10.88 47.66 0.82 78.86c5.6-0.74 0.43 6.76 48.69 10.11 1.88-1.46 4.54 12.14 24.64 14.94 20.07-2.79 22.51-16.4 24.4-14.94C146.79 85.61 141.25 78.12 146.85 78.86z"/><defs><path id="SVGID_12_" d="M146.85 78.86C153.17 45.5 170.38-5 75.16-5 -16.62-5-2.33 49.45 0.82 78.86c5.6-0.74 0.43 6.76 48.69 10.11 1.88-1.46 4.54 12.14 24.64 14.94 20.07-2.79 22.51-16.4 24.4-14.94C146.79 85.61 141.25 78.12 146.85 78.86z"/></defs><clipPath id="SVGID_3_"><use xlink:href="#SVGID_12_" overflow="visible"/></clipPath><g clip-path="url(#SVGID_3_)"><polygon fill="#FFE270" points="91.48 121.9 82.55 120.66 86.18 96.58 92.42 72.93 95.55 48.68 101 24.87 104.42 0.3 115.48 2.44 111.18 26.62 106.69 50.6 101.64 74.49 96.15 98.28 "/><polygon fill="#FFE270" points="62.16 142.24 51.1 145.71 41.63 123.32 30.85 101.9 20.4 80.32 10.01 58.7 0.31 37.03 10.64 33.72 21.32 55.44 30.45 77.65 41.78 98.81 50.97 121 "/><polygon fill="#FFE270" points="78.14 139.46 66.03 136.41 66.63 110.71 66.61 85.26 67.72 59.82 67.23 34.37 66.25 8.67 77.33 11.84 78.01 37.28 76.92 62.72 77.06 88.16 78.21 113.6 "/><polygon fill="#FFE270" points="97.36 150.57 88.61 144.18 100.27 121.09 109.74 97.2 120.83 74.05 131.07 50.51 142.1 27.1 150.29 34.1 141.06 57.85 129.91 80.97 118.47 103.96 107.93 127.36 "/><polygon fill="#FFE270" points="66.04 134.36 54.85 133.54 46.25 111.03 39.73 87.55 32.85 64.19 24.06 41.43 18.21 18.16 28.87 18.79 36.63 41.61 43.79 64.88 52.39 87.7 59.28 111.06 "/><polygon fill="#FFE270" points="81.13 136.98 70.26 134.35 73.18 111.78 77.35 89.55 79.05 66.98 82.88 44.69 86.29 22.53 96.39 25.06 93.65 47.47 90.73 69.87 86.33 92.07 83.84 114.54 "/><polygon fill="#FFE270" points="97.42 131.47 85.98 129.06 92.79 106.32 102.06 84.15 109.31 61.24 118.32 38.97 125.58 15.73 137.84 18.23 129.07 40.57 121.31 63.29 113.4 85.96 104.6 108.32 "/><polygon fill="#FFE270" points="75.17 142.65 64.51 146.62 60.47 123.01 54.73 99.77 51.28 76.07 45.82 52.77 40.96 29.16 52.14 25.89 57.63 48.87 61.81 72.42 66.8 95.81 71.42 119.28 "/></g><path fill="#FAEDDA" d="M45.14 124.52c3.79 9.42 6.21 22.61 2.09 31.87 -0.41 0.97 0.55 2.11 1.72 2 8.65-1.1 20-1.34 22.26-11.85 0.81-4.03-2.51-7.09-6.92-8.4 -8.27-2.4-15.89 1.84-23.9-2.19 -2.07-0.99-4.76 1.64-2.79 2.66 6.95 3.31 15.41 1.53 22.94-2.06 7.21-3.71 13.49-9.22 8.7-16.02 -6.89-10.71-42.16-2.85-37.78 9.95 0.56 1.78 4.82 0 4.39-1.81 -2.29-8.66 20.51-12.54 27.15-8.27 12.63 7.94-13.05 21.22-22.62 15.56 -0.96 0.87-1.88 1.76-2.79 2.66 8.31 3.8 15.42 1.1 24.33 2.15 9.54 1.54 5.52 9.86 0.19 12.07 -4.42 1.91-8.61 2.27-13.6 2.73 0.56 0.68 1.12 1.36 1.67 2.04 4.5-9.77 3.11-23.86-0.44-34.29C49.15 121.44 44.42 122.71 45.14 124.52L45.14 124.52z"/><path fill="#FAEDDA" d="M75.26 147.55c5.72 0.71 11.55-1.57 13.62-7.11 1.73-4.53-2.25-8.81-8.48-6.71 -7.07 2.52-8.01 9.62-6.56 14.79 2.04 6.91 7.64 7.87 13.61 5.77 1.91-0.66 1.05-3.69-0.95-2.98 -4.41 1.6-8.08 1.49-9.47-3.47 -1.01-3.64-0.12-8.4 3.81-10.71 3.4-1.95 5.42-0.19 4.32 2.73 -1.46 3.96-5.62 5.1-9.82 4.63C73.09 144.25 73.17 147.3 75.26 147.55L75.26 147.55z"/><path fill="#FAEDDA" d="M94.1 154.94c1.11-6.02 3.36-11.65 6.22-17.17 -1.3-0.36-2.6-0.7-3.91-1.01 -0.46 1.07-0.52 2.19-0.74 3.31 -0.21 1.18 0.88 2.28 2.36 2.05 6-0.85 6.42 2.72 5.03 6.69 -0.97 2.91-2.54 5.67-4.07 8.34 -1.03 1.83 1.73 2.98 2.88 1.22 4.27-6 11.52-21.34-4.85-19.38 0.82 0.68 1.61 1.38 2.39 2.08 0.28-1.12 0.4-2.24 0.91-3.3 0.95-1.91-3.07-2.91-3.91-1.01 -2.69 5.89-4.58 11.82-5.45 18.15C90.69 156.91 93.69 156.93 94.1 154.94L94.1 154.94z"/></g></svg>