<?xml version="1.0" encoding="iso-8859-1"?>
<!-- Generator: Adobe Illustrator 16.0.3, SVG Export Plug-In . SVG Version: 6.00 Build 0)  -->
<!DOCTYPE svg PUBLIC "-//W3C//DTD SVG 1.1//EN" "http://www.w3.org/Graphics/SVG/1.1/DTD/svg11.dtd">
<svg version="1.1" id="Calque_1" xmlns="http://www.w3.org/2000/svg" xmlns:xlink="http://www.w3.org/1999/xlink" x="0px" y="0px"
	 width="1280px" height="455px" viewBox="0 0 1280 455" style="enable-background:new 0 0 1280 455;" xml:space="preserve">
<linearGradient id="SVGID_1_" gradientUnits="userSpaceOnUse" x1="639.9995" y1="154" x2="639.9995" y2="403">
	<stop  offset="0" style="stop-color:#FFDAB7"/>
	<stop  offset="0.6081" style="stop-color:#FFD8B5"/>
	<stop  offset="0.9094" style="stop-color:#FFD0AF"/>
	<stop  offset="1" style="stop-color:#FFCCAB"/>
</linearGradient>
<rect x="431" y="154" style="fill:url(#SVGID_1_);" width="418" height="249"/>
<linearGradient id="SVGID_2_" gradientUnits="userSpaceOnUse" x1="533.3843" y1="79.3286" x2="533.3843" y2="429.9995" gradientTransform="matrix(-1 0 0 1 1592.8848 0)">
	<stop  offset="0" style="stop-color:#FFDAB7"/>
	<stop  offset="0.5806" style="stop-color:#FFD8B5"/>
	<stop  offset="0.8775" style="stop-color:#FFD0AE"/>
	<stop  offset="1" style="stop-color:#FFCAA9"/>
</linearGradient>
<polygon style="fill:url(#SVGID_2_);" points="839,393 1280,430 1280,79.328 839,167 "/>
<linearGradient id="SVGID_3_" gradientUnits="userSpaceOnUse" x1="220.5" y1="79.4258" x2="220.5" y2="430.0005">
	<stop  offset="0" style="stop-color:#FFDAB7"/>
	<stop  offset="0.5806" style="stop-color:#FFD8B5"/>
	<stop  offset="0.8775" style="stop-color:#FFD0AE"/>
	<stop  offset="1" style="stop-color:#FFCAA9"/>
</linearGradient>
<polygon style="fill:url(#SVGID_3_);" points="441,393 0,430 0,79.426 440,167 "/>
<rect x="440" y="155" style="fill:#FFCBA8;" width="399" height="24"/>
<polygon style="fill:#FFC09F;" points="839,179 441,179 464.5,181 815.5,181 "/>
<linearGradient id="SVGID_4_" gradientUnits="userSpaceOnUse" x1="220.6558" y1="238.4321" x2="220.6558" y2="141.7512">
	<stop  offset="0" style="stop-color:#FFDAB7"/>
	<stop  offset="0.2819" style="stop-color:#FFD5B3"/>
	<stop  offset="1" style="stop-color:#FFCBAD"/>
</linearGradient>
<polyline style="fill:url(#SVGID_4_);" points="441.312,179 0,137.602 0,247 "/>
<linearGradient id="SVGID_5_" gradientUnits="userSpaceOnUse" x1="915.8408" y1="238.4321" x2="915.8408" y2="141.7512" gradientTransform="matrix(-1 0 0 1 1975.3691 0)">
	<stop  offset="0" style="stop-color:#FFDAB7"/>
	<stop  offset="0.2819" style="stop-color:#FFD5B3"/>
	<stop  offset="1" style="stop-color:#FFCBAD"/>
</linearGradient>
<polyline style="fill:url(#SVGID_5_);" points="839.057,179 1280,137.602 1280,247 "/>
<g>
	<g>
		<polygon style="fill:#FFC7A8;" points="976.715,407.091 1280,430 1280,455 976.691,425.5 		"/>
		<polygon style="fill:#FFD3B6;" points="976,403.545 1280,422 1280,430 976,407.091 		"/>
	</g>
	<g>
		<polygon style="fill:#FFC7A8;" points="839,393 976.657,407.091 976.885,425.333 839,404.531 		"/>
		<polygon style="fill:#FFD3B6;" points="839,391 976.885,403.606 976.657,407.091 839,393 		"/>
	</g>
</g>
<g>
	<linearGradient id="SVGID_6_" gradientUnits="userSpaceOnUse" x1="10.6445" y1="42.3101" x2="443.4673" y2="139.6374">
		<stop  offset="0" style="stop-color:#FFCEAC"/>
		<stop  offset="1" style="stop-color:#FFC9A7"/>
	</linearGradient>
	<polygon style="fill:url(#SVGID_6_);" points="441,179 0,79.426 0,0 441,154.872 	"/>
	<linearGradient id="SVGID_7_" gradientUnits="userSpaceOnUse" x1="2.3501" y1="108.8008" x2="440.2484" y2="162.4741">
		<stop  offset="0" style="stop-color:#FFC6A4"/>
		<stop  offset="0.6575" style="stop-color:#FFC09F"/>
		<stop  offset="1" style="stop-color:#FFBA9A"/>
	</linearGradient>
	<polygon style="fill:url(#SVGID_7_);" points="0,137.602 379.659,179 441.03,179 0,79.426 	"/>
</g>
<g>
	
		<linearGradient id="SVGID_8_" gradientUnits="userSpaceOnUse" x1="499.5303" y1="42.311" x2="932.3521" y2="139.6381" gradientTransform="matrix(-1 0 0 1 1768.8848 0)">
		<stop  offset="0" style="stop-color:#FFCEAC"/>
		<stop  offset="1" style="stop-color:#FFC9A7"/>
	</linearGradient>
	<polygon style="fill:url(#SVGID_8_);" points="839,179 1280,79.328 1280,0 839,154.872 	"/>
	
		<linearGradient id="SVGID_9_" gradientUnits="userSpaceOnUse" x1="491.2305" y1="108.752" x2="929.2513" y2="162.4403" gradientTransform="matrix(-1 0 0 1 1768.8848 0)">
		<stop  offset="0" style="stop-color:#FFC6A4"/>
		<stop  offset="0.6575" style="stop-color:#FFC09F"/>
		<stop  offset="1" style="stop-color:#FFBA9A"/>
	</linearGradient>
	<polygon style="fill:url(#SVGID_9_);" points="1280,137.602 900.226,179 838.855,179 1280,79.328 	"/>
</g>
<g>
	<polygon style="fill:#FFC7A8;" points="303.228,407.091 0,430 0,455 303.28,425.5 	"/>
	<polygon style="fill:#FFD3B6;" points="304,403.545 0,422 0,430 304,407.091 	"/>
</g>
<g>
	<polygon style="fill:#FFC7A8;" points="441,393 303.228,407.091 303,425.333 441,404.5 	"/>
	<polygon style="fill:#FFD3B6;" points="441,391 303,403.606 303.228,407.091 441,393 	"/>
</g>
<polygon style="fill:#FFC7A8;" points="839,404.531 441,404.5 441,393 839,393 "/>
<rect x="441" y="391" style="fill:#FFD3B6;" width="398" height="2"/>
</svg>
