<svg xmlns="http://www.w3.org/2000/svg" version="1.1" x="0px" y="0px" width="1280px" height="800px" viewBox="0 0 1280 800" enable-background="new 0 0 1280 800" xml:space="preserve"><g id="Calque_1" preserveAspectRatio="none"><linearGradient id="SVGID_1_" gradientUnits="userSpaceOnUse" x1="639.9995" y1="136" x2="639.9995" y2="385"><stop offset="0" stop-color="#FFEDD9"/><stop offset="0.5681" stop-color="#FDEBD7"/><stop offset="0.8497" stop-color="#F5E4D0"/><stop offset="1" stop-color="#EDDCC9"/></linearGradient><rect x="441" y="136" fill="url(#SVGID_1_)" width="398" height="249"/><linearGradient id="SVGID_2_" gradientUnits="userSpaceOnUse" x1="220.5" y1="0" x2="220.5" y2="447.0005"><stop offset="0" stop-color="#FFEDD9"/><stop offset="0.5457" stop-color="#FDEBD7"/><stop offset="0.8247" stop-color="#F5E3D0"/><stop offset="1" stop-color="#EBDAC7"/></linearGradient><rect fill="url(#SVGID_2_)" width="441" height="447"/><rect x="440" y="137" fill="#F7D0D0" width="399" height="24"/><polygon fill="#F2C6C6" points="839 161 441 161 464.5 163 815.5 163 "/><linearGradient id="SVGID_3_" gradientUnits="userSpaceOnUse" x1="220.6841" y1="220.4321" x2="220.6841" y2="123.7512"><stop offset="0" stop-color="#FFEDD9"/><stop offset="0.3742" stop-color="#F7E5D2"/><stop offset="1" stop-color="#EDDBCA"/></linearGradient><polyline fill="url(#SVGID_3_)" points="441.312 161 0.057 119.602 0.283 229 "/><linearGradient id="SVGID_4_" gradientUnits="userSpaceOnUse" x1="533.3843" y1="4.882813e-004" x2="533.3843" y2="446.9995" gradientTransform="matrix(-1 0 0 1 1592.8848 0)"><stop offset="0" stop-color="#FFEDD9"/><stop offset="0.5457" stop-color="#FDEBD7"/><stop offset="0.8247" stop-color="#F5E3D0"/><stop offset="1" stop-color="#EBDAC7"/></linearGradient><rect x="839" fill="url(#SVGID_4_)" width="441" height="447"/><path fill="#FACCCC" d="M394.412 599.479c-40.374-6.887-80.346-15.273-120.059-25.296 31.181-22.381 61.88-45.398 92.75-68.202 31.861 5.392 63.784 9.818 95.939 13.035C439.365 545.157 416.621 572.083 394.412 599.479z"/><path fill="#FACCCC" d="M367.104 505.98c-33.328-5.938-66.396-12.864-99.323-20.723 29.641-15.822 59.297-31.082 90.503-43.615 28.146 4.738 56.321 9.209 84.587 13.171C416.634 470.491 391.764 487.947 367.104 505.98z"/><path fill="#FFEDD9" d="M463.043 519.016c-32.155-3.217-64.078-7.644-95.939-13.035 24.661-18.033 49.53-35.489 75.768-51.167 24.264 3.24 48.561 6.253 72.992 7.91C498.041 481.292 480.391 500.003 463.043 519.016z"/><path fill="#FFEDD9" d="M274.353 574.183c-38.931-10.221-77.296-21.956-115.23-35.415 37.06-16.234 72.998-34.426 108.658-53.51 32.927 7.858 65.995 14.784 99.323 20.723C336.233 528.784 305.534 551.802 274.353 574.183z"/><path fill="#FACCCC" d="M159.123 538.768c-36.989-13.546-73.212-28.639-108.797-45.536 41.239-9.046 81.294-20.886 121.125-34.819 31.854 9.936 63.943 18.823 96.331 26.846C232.121 504.342 196.183 522.533 159.123 538.768z"/><path fill="#FACCCC" d="M171.45 458.412c-29.372-9.479-58.344-19.795-86.951-31.385 38.101-5.684 76.026-11.61 114.428-14.934 24.762 4.822 49.534 9.585 74.325 14.257C238.563 434.874 205.091 446.509 171.45 458.412z"/><path fill="#FFEDD9" d="M267.781 485.258c-32.388-8.022-64.478-16.91-96.331-26.846 33.641-11.903 67.113-23.538 101.801-32.062 28.311 5.289 56.649 10.407 85.033 15.292C327.078 454.176 297.421 469.436 267.781 485.258z"/><path fill="#FFEDD9" d="M50.325 493.231c-34.552-16.903-68.08-35.345-100.747-55.656 45.284-0.7 90.105-3.986 134.92-10.548 28.607 11.59 57.579 21.906 86.951 31.385C131.619 472.346 91.564 484.186 50.325 493.231z"/><path fill="#FACCCC" d="M642.506 619.707c-41.703-0.175-83.272-1.852-124.853-5.059 11.182-28.988 22.737-57.81 34.745-86.465 30.025 1.9 60.02 2.911 90.104 3.059C642.511 560.73 642.506 590.219 642.506 619.707z"/><path fill="#FACCCC" d="M552.398 528.184c-29.896-2.18-59.64-5.227-89.355-9.168 17.348-19.013 34.998-37.724 52.82-56.292 21.116 1.341 42.231 2.4 63.375 3.168C570.229 486.63 561.224 507.366 552.398 528.184z"/><path fill="#FFEDD9" d="M642.503 531.242c-30.084-0.147-60.08-1.158-90.104-3.059 8.826-20.817 17.831-41.554 26.84-62.292 21.089 0.64 42.168 0.995 63.267 1.059C642.502 488.381 642.503 509.812 642.503 531.242z"/><path fill="#FFEDD9" d="M517.653 614.648c-41.294-3.537-82.325-8.569-123.242-15.17 22.209-27.396 44.954-54.321 68.631-80.463 29.715 3.941 59.459 6.988 89.355 9.168C540.391 556.839 528.835 585.66 517.653 614.648z"/><path fill="#FACCCC" d="M890.589 599.479c-40.914 6.603-81.943 11.639-123.235 15.17 -11.188-28.986-22.74-57.809-34.748-86.465 29.895-2.18 59.637-5.227 89.351-9.168C845.629 545.163 868.378 572.083 890.589 599.479z"/><path fill="#FACCCC" d="M732.605 528.184c-30.024 1.9-60.019 2.911-90.103 3.059 0-21.431-0.001-42.861 0.002-64.292 21.097-0.063 42.173-0.419 63.26-1.059C714.774 486.63 723.777 507.367 732.605 528.184z"/><path fill="#FFEDD9" d="M821.956 519.016c-29.714 3.941-59.456 6.988-89.351 9.168 -8.828-20.816-17.831-41.554-26.841-62.292 21.144-0.768 42.258-1.827 63.373-3.168C786.96 481.291 804.607 500.004 821.956 519.016z"/><path fill="#FFEDD9" d="M767.354 614.648c-41.578 3.207-83.146 4.884-124.848 5.059 0-29.488 0.005-58.977-0.003-88.465 30.084-0.147 60.078-1.158 90.103-3.059C744.613 556.84 756.166 585.662 767.354 614.648z"/><path fill="#FACCCC" d="M1125.881 538.768c-37.936 13.455-76.298 25.19-115.228 35.416 -31.304-22.449-62.081-45.593-93.017-68.543 33.154-6.15 66.026-13.336 98.749-21.473C1052.292 503.698 1088.437 522.33 1125.881 538.768z"/><path fill="#FACCCC" d="M917.637 505.641c-31.765 5.585-63.588 10.151-95.681 13.375 -17.349-19.012-34.996-37.725-52.818-56.292 24.293-1.659 48.404-4.987 72.473-8.589C867.975 469.869 892.906 487.471 917.637 505.641z"/><path fill="#FFEDD9" d="M1016.386 484.168c-32.723 8.137-65.595 15.322-98.749 21.473 -24.73-18.17-49.662-35.771-76.026-51.506 27.901-4.407 55.687-9.396 83.437-14.671C956.63 452.201 986.5 467.914 1016.386 484.168z"/><path fill="#FFEDD9" d="M1010.653 574.184c-39.715 10.022-79.688 18.405-120.064 25.295 -22.211-27.396-44.96-54.315-68.633-80.463 32.093-3.224 63.916-7.79 95.681-13.375C948.572 528.591 979.35 551.734 1010.653 574.184z"/><path fill="#FACCCC" d="M1335.423 437.575c-32.668 20.313-66.196 38.751-100.749 55.655 -41.88-9.293-82.308-21.84-122.535-36.654 29.257-9.668 58.141-20.132 86.69-31.726C1244.146 432.667 1289.441 436.782 1335.423 437.575z"/><path fill="#FACCCC" d="M1112.139 456.576c-31.663 10.144-63.556 19.301-95.753 27.592 -29.886-16.254-59.756-31.967-91.339-44.704 27.996-5.417 55.942-11.069 83.879-16.784C1044.238 431.478 1078.08 443.887 1112.139 456.576z"/><path fill="#FFEDD9" d="M1198.829 424.851c-28.55 11.594-57.434 22.058-86.69 31.726 -34.059-12.689-67.9-25.099-103.213-33.896 24.588-5.046 49.168-10.138 73.806-14.939C1121.829 411.185 1160.202 418.11 1198.829 424.851z"/><path fill="#FFEDD9" d="M1234.674 493.23c-35.582 16.901-71.806 31.988-108.793 45.537 -37.444-16.438-73.589-35.069-109.495-54.6 32.197-8.291 64.09-17.448 95.753-27.592C1152.366 471.391 1192.794 483.938 1234.674 493.23z"/><path fill="#FACCCC" d="M515.863 462.724c-24.432-1.657-48.729-4.67-72.992-7.91 19.218-12.271 38.247-24.809 57.181-37.513 18.055 1.635 36.112 3.137 54.228 3.914C542.021 435.548 528.898 449.104 515.863 462.724z"/><path fill="#FACCCC" d="M500.052 417.301c-20.04-1.898-40.038-4.179-60.026-6.549 25.316-9.574 50.683-18.441 76.786-25.636 10.476 0 20.951 0 31.427 0C532.085 395.71 516.071 406.506 500.052 417.301z"/><path fill="#FFEDD9" d="M554.28 421.215c-18.116-0.777-36.173-2.279-54.228-3.914 16.02-10.795 32.034-21.59 48.187-32.185 10.476 0 20.951 0.001 31.426 0C572.155 398.081 563.76 409.616 554.28 421.215z"/><path fill="#FFEDD9" d="M442.871 454.813c-28.266-3.962-56.441-8.433-84.587-13.171 27.438-9.807 54.552-20.425 81.741-30.891 19.989 2.37 39.986 4.65 60.026 6.549C481.118 430.005 462.089 442.543 442.871 454.813z"/><path fill="#FACCCC" d="M358.284 441.643c-28.384-4.885-56.722-10.003-85.033-15.292 35.742-6.704 71.077-15.109 106.521-23.202 20.075 2.614 40.157 5.158 60.253 7.604C412.836 421.218 385.722 431.836 358.284 441.643z"/><path fill="#FACCCC" d="M379.772 403.148c-18.296-2.386-36.591-4.772-54.896-7.089 42.928-6.015 85.698-10.495 129.081-10.943 10.476 0 20.951 0.001 31.427 0C449.699 388.736 414.754 395.341 379.772 403.148z"/><path fill="#FFEDD9" d="M440.025 410.752c-20.096-2.445-40.179-4.989-60.253-7.604 34.982-7.807 69.927-14.412 105.611-18.032 10.476-0.002 20.952 0.001 31.428 0C490.708 392.311 465.341 401.178 440.025 410.752z"/><path fill="#FFEDD9" d="M273.251 426.351c-24.791-4.672-49.563-9.435-74.325-14.257 42.223-3.615 84.029-9.971 125.95-16.035 18.305 2.317 36.6 4.704 54.896 7.089C344.328 411.241 308.993 419.646 273.251 426.351z"/><path fill="#FACCCC" d="M642.505 466.95c-21.099-0.063-42.178-0.419-63.267-1.059 6.593-14.273 13.224-28.535 19.179-43.091 14.696 0.305 29.386 0.479 44.085 0.527C642.502 437.869 642.505 452.409 642.505 466.95z"/><path fill="#FACCCC" d="M598.417 422.801c-14.72-0.402-29.427-0.928-44.137-1.586 9.48-11.599 17.875-23.134 25.385-36.099 10.473 0 20.946-0.001 31.418 0C607.819 397.976 603.45 410.531 598.417 422.801z"/><path fill="#FFEDD9" d="M642.502 423.328c-14.699-0.049-29.389-0.223-44.085-0.527 5.033-12.27 9.402-24.825 12.666-37.685 10.473-0.001 20.946 0 31.419 0C642.503 397.853 642.5 410.591 642.502 423.328z"/><path fill="#FFEDD9" d="M579.238 465.892c-21.144-0.768-42.259-1.827-63.375-3.168 13.035-13.619 26.158-27.176 38.417-41.509 14.71 0.658 29.417 1.184 44.137 1.586C592.462 437.356 585.831 451.618 579.238 465.892z"/><path fill="#FACCCC" d="M769.138 462.724c-21.115 1.341-42.229 2.4-63.373 3.168 -6.591-14.275-13.222-28.536-19.182-43.091 14.721-0.402 29.429-0.928 44.14-1.586C742.979 435.55 756.103 449.104 769.138 462.724z"/><path fill="#FACCCC" d="M686.583 422.801c-14.695 0.303-29.383 0.479-44.081 0.527 -0.002-12.737 0.001-25.475 0-38.212 10.473-0.001 20.945 0 31.418 0C677.189 397.976 681.553 410.529 686.583 422.801z"/><path fill="#FFEDD9" d="M730.723 421.215c-14.711 0.658-29.419 1.184-44.14 1.586 -5.03-12.271-9.394-24.825-12.663-37.685 10.473-0.001 20.946 0 31.419 0C712.849 398.083 721.24 409.616 730.723 421.215z"/><path fill="#FFEDD9" d="M705.765 465.892c-21.087 0.64-42.163 0.995-63.26 1.059 0-14.541-0.003-29.081-0.003-43.622 14.698-0.049 29.386-0.225 44.081-0.527C692.543 437.355 699.174 451.616 705.765 465.892z"/><path fill="#FACCCC" d="M925.047 439.464c-27.75 5.274-55.535 10.264-83.437 14.671 -19.293-12.28-38.526-24.646-57.659-37.174 19.609-2.113 39.174-4.63 58.715-7.297C870.125 419.604 897.518 429.721 925.047 439.464z"/><path fill="#FACCCC" d="M783.951 416.961c-17.716 1.814-35.432 3.473-53.229 4.254 -9.482-11.599-17.874-23.132-25.384-36.099 10.476 0 20.95 0 31.426 0C752.377 395.909 768.117 406.496 783.951 416.961z"/><path fill="#FFEDD9" d="M842.666 409.664c-19.541 2.667-39.105 5.184-58.715 7.297 -15.834-10.465-31.574-21.052-47.187-31.846 10.476 0 20.951 0 31.427 0C793.316 392.449 818.022 400.858 842.666 409.664z"/><path fill="#FFEDD9" d="M841.61 454.135c-24.068 3.602-48.18 6.93-72.473 8.589 -13.035-13.619-26.159-27.174-38.415-41.509 17.797-0.781 35.513-2.439 53.229-4.254C803.084 429.489 822.317 441.854 841.61 454.135z"/><path fill="#FACCCC" d="M1082.731 407.74c-24.638 4.802-49.218 9.894-73.806 14.939 -35.887-6.577-71.568-14.137-107.325-21.37 17.954-2.566 35.912-5.084 53.897-7.427C997.881 398.867 1040.195 404.207 1082.731 407.74z"/><path fill="#FACCCC" d="M901.601 401.31c-19.639 2.83-39.276 5.665-58.935 8.354 -24.644-8.806-49.35-17.215-74.475-24.548 10.476 0.001 20.95-0.001 31.426 0C833.932 388.753 867.761 394.632 901.601 401.31z"/><path fill="#FFEDD9" d="M955.498 393.882c-17.985 2.343-35.943 4.861-53.897 7.427 -33.84-6.677-67.669-12.557-101.983-16.194 10.476 0 20.952 0 31.428 0C872.754 385.516 914.079 389.172 955.498 393.882z"/><path fill="#FFEDD9" d="M1008.926 422.68c-27.937 5.715-55.883 11.367-83.879 16.784 -27.529-9.743-54.922-19.86-82.381-29.8 19.658-2.689 39.296-5.524 58.935-8.354C937.357 408.543 973.039 416.103 1008.926 422.68z"/><path fill="#FACCCC" d="M204.08 870.553c-67.78-17.583-134.052-39.31-198.686-66.292 45.555-45.845 92.733-89.857 141.992-131.702 52.945 16.863 106.635 30.316 161.162 40.975C272.292 764.924 237.653 817.374 204.08 870.553z"/><path fill="#FACCCC" d="M147.386 672.559c-50.16-16.57-98.946-36.047-146.394-59.291 51.865-26.664 104.6-51.368 158.13-74.5 37.935 13.459 76.3 25.194 115.23 35.415C230.721 605.32 188.47 638.128 147.386 672.559z"/><path fill="#FFEDD9" d="M308.548 713.533c-54.527-10.658-108.217-24.111-161.162-40.975 41.083-34.431 83.334-67.238 126.967-98.376 39.713 10.022 79.685 18.409 120.059 25.296C364.562 636.567 336.174 674.768 308.548 713.533z"/><path fill="#FFEDD9" d="M5.394 804.261c-60.65-26.105-118.77-56.533-173.973-92.812 55.093-35.247 111.596-67.913 169.571-98.182 47.448 23.244 96.234 42.721 146.394 59.291C98.127 714.403 50.949 758.416 5.394 804.261z"/><path fill="#FACCCC" d="M-168.579 711.449c-51.344-34.865-98.57-74.015-141.027-119.34 60.61-21.099 121.943-39.7 183.889-56.457 40.066 29.598 82.301 55.082 126.709 77.615C-56.983 643.536-113.486 676.202-168.579 711.449z"/><path fill="#FACCCC" d="M-125.717 535.652c-37.345-28.67-71.42-60.182-102.087-95.936 59.123-1.124 118.251-1.65 177.382-2.142 32.667 20.312 66.195 38.753 100.747 55.656C-8.641 506.219-67.359 520.147-125.717 535.652z"/><path fill="#FFEDD9" d="M0.992 613.268c-44.408-22.533-86.643-48.018-126.709-77.615 58.357-15.505 117.076-29.434 176.042-42.421 35.585 16.897 71.808 31.99 108.797 45.536C105.592 561.899 52.857 586.604 0.992 613.268z"/><path fill="#FFEDD9" d="M-309.605 592.109c-39.909-44.309-73.37-92.382-99.837-145.861 60.509-3.295 121.056-5.265 181.639-6.531 30.667 35.754 64.742 67.266 102.087 95.936C-187.663 552.409-248.996 571.011-309.605 592.109z"/><path fill="#FACCCC" d="M642.508 923.567c-74.705-0.244-149.128-4.599-223.332-13.253 17.24-56.672 35.098-113.14 53.89-169.316 56.357 5.905 112.777 8.921 169.442 9.156C642.508 807.959 642.508 865.763 642.508 923.567z"/><path fill="#FACCCC" d="M473.066 740.998c-55.355-6.28-110.143-15.322-164.518-27.465 27.626-38.766 56.014-76.966 85.863-114.055 40.917 6.601 81.948 11.633 123.242 15.17C502.143 656.54 487.352 698.674 473.066 740.998z"/><path fill="#FFEDD9" d="M642.508 750.154c-56.665-0.235-113.084-3.251-169.442-9.156 14.286-42.324 29.077-84.458 44.587-126.35 41.58 3.207 83.149 4.884 124.853 5.059C642.506 663.189 642.505 706.672 642.508 750.154z"/><path fill="#FFEDD9" d="M419.176 910.314c-72.512-8.99-144.207-22.023-215.096-39.762 33.574-53.179 68.213-105.629 104.469-157.02 54.375 12.143 109.162 21.185 164.518 27.465C454.273 797.175 436.416 853.643 419.176 910.314z"/><path fill="#FACCCC" d="M1080.916 870.555c-70.886 17.737-142.578 30.772-215.087 39.759 -17.236-56.672-35.095-113.14-53.893-169.313 55.353-6.278 110.142-15.32 164.513-27.465C1012.711 764.922 1047.34 817.379 1080.916 870.555z"/><path fill="#FACCCC" d="M811.937 741c-56.354 5.897-112.769 8.919-169.429 9.154 -0.003-43.482-0.002-86.965-0.002-130.447 41.701-0.175 83.27-1.852 124.848-5.059C782.857 656.542 797.652 698.676 811.937 741z"/><path fill="#FFEDD9" d="M976.449 713.535C922.078 725.68 867.289 734.722 811.937 741c-14.284-42.324-29.079-84.458-44.583-126.352 41.292-3.531 82.321-8.567 123.235-15.17C920.436 636.57 948.827 674.766 976.449 713.535z"/><path fill="#FFEDD9" d="M865.829 910.313c-74.205 8.647-148.617 12.999-223.321 13.254 0-57.805 0-115.608 0-173.413 56.66-0.235 113.074-3.257 169.429-9.154C830.734 797.174 848.593 853.642 865.829 910.313z"/><path fill="#FACCCC" d="M1453.582 711.446c-55.196 36.285-113.324 66.708-173.972 92.814 -45.548-45.854-92.742-89.85-141.994-131.703 50.159-16.571 98.948-36.043 146.395-59.29C1341.993 643.519 1398.489 676.205 1453.582 711.446z"/><path fill="#FACCCC" d="M1137.616 672.558c-52.942 16.874-106.64 30.319-161.167 40.978 -27.622-38.77-56.014-76.965-85.86-114.057 40.376-6.89 80.35-15.272 120.064-25.295C1054.285 605.32 1096.53 638.132 1137.616 672.558z"/><path fill="#FFEDD9" d="M1284.011 613.268c-47.446 23.247-96.235 42.719-146.395 59.29 -41.086-34.426-83.331-67.237-126.963-98.374 38.93-10.226 77.292-21.961 115.228-35.416C1179.413 561.896 1232.145 586.606 1284.011 613.268z"/><path fill="#FFEDD9" d="M1279.61 804.261c-64.628 26.991-130.912 48.726-198.694 66.294 -33.576-53.176-68.205-105.633-104.467-157.02 54.527-10.658 108.225-24.104 161.167-40.978C1186.868 714.411 1234.063 758.407 1279.61 804.261z"/><path fill="#FACCCC" d="M1694.443 446.248c-26.47 53.479-59.93 101.555-99.839 145.864 -60.609-21.097-121.94-39.718-183.891-56.457 37.346-28.674 71.422-60.183 102.092-95.938C1573.389 440.983 1633.935 442.953 1694.443 446.248z"/><path fill="#FACCCC" d="M1410.714 535.655c-40.061 29.602-82.301 55.075-126.703 77.612 -51.866-26.661-104.598-51.371-158.13-74.5 36.987-13.549 73.211-28.636 108.793-45.537C1293.637 506.228 1352.358 520.144 1410.714 535.655z"/><path fill="#FFEDD9" d="M1512.806 439.717c-30.67 35.756-64.746 67.265-102.092 95.938 -58.355-15.512-117.077-29.428-176.04-42.425 34.553-16.904 68.081-35.343 100.749-55.655C1394.554 438.066 1453.683 438.593 1512.806 439.717z"/><path fill="#FFEDD9" d="M1594.604 592.112c-42.451 45.321-89.677 84.481-141.022 119.334 -55.093-35.241-111.589-67.928-169.571-98.179 44.402-22.537 86.643-48.011 126.703-77.612C1472.664 552.395 1533.995 571.016 1594.604 592.112z"/><linearGradient id="SVGID_5_" gradientUnits="userSpaceOnUse" x1="915.6846" y1="220.4321" x2="915.6846" y2="123.7512" gradientTransform="matrix(-1 0 0 1 1975.3691 0)"><stop offset="0" stop-color="#FFEDD9"/><stop offset="0.3742" stop-color="#F7E5D2"/><stop offset="1" stop-color="#EDDBCA"/></linearGradient><polyline fill="url(#SVGID_5_)" points="839.057 161 1280.313 119.602 1280.086 229 "/><polygon fill="#F0E2CF" points="976.715 389.091 1280 412 1280 437 976.691 407.5 "/><polygon fill="#F7EAD6" points="976 385.545 1280 404 1280 412 976 389.091 "/><polygon fill="#F0E2CF" points="839.273 375.145 976.657 389.091 976.885 407.333 839.27 386.5 "/><polygon fill="#F7EAD6" points="839.269 372.763 976.885 385.606 976.657 389.091 839.273 375.145 "/><linearGradient id="SVGID_6_" gradientUnits="userSpaceOnUse" x1="10.4712" y1="24.0942" x2="443.5018" y2="121.4683"><stop offset="0" stop-color="#FCD4D4"/><stop offset="0.9314" stop-color="#F6CFCF"/><stop offset="1" stop-color="#F5CECE"/></linearGradient><polygon fill="url(#SVGID_6_)" points="441 161 0.424 61.426 -0.145 -18.387 441 136.872 "/><linearGradient id="SVGID_7_" gradientUnits="userSpaceOnUse" x1="2.7822" y1="90.8096" x2="440.2565" y2="144.4309"><stop offset="0" stop-color="#FACCCC"/><stop offset="0.7397" stop-color="#F4C7C7"/><stop offset="1" stop-color="#F0C4C4"/></linearGradient><polygon fill="url(#SVGID_7_)" points="0.283 119.602 379.659 161 441.03 161 0.439 61.426 "/><linearGradient id="SVGID_8_" gradientUnits="userSpaceOnUse" x1="499.3843" y1="24.0977" x2="932.3879" y2="121.4656" gradientTransform="matrix(-1 0 0 1 1768.8848 0)"><stop offset="0" stop-color="#FCD4D4"/><stop offset="0.9314" stop-color="#F6CFCF"/><stop offset="1" stop-color="#F5CECE"/></linearGradient><polygon fill="url(#SVGID_8_)" points="839 161 1279.519 61.426 1280.115 -18.387 839 136.872 "/><linearGradient id="SVGID_9_" gradientUnits="userSpaceOnUse" x1="491.7827" y1="90.8096" x2="929.2561" y2="144.4308" gradientTransform="matrix(-1 0 0 1 1768.8848 0)"><stop offset="0" stop-color="#FACCCC"/><stop offset="0.7397" stop-color="#F4C7C7"/><stop offset="1" stop-color="#F0C4C4"/></linearGradient><polygon fill="url(#SVGID_9_)" points="1279.602 119.602 900.226 161 838.855 161 1279.445 61.426 "/><linearGradient id="SVGID_10_" gradientUnits="userSpaceOnUse" x1="639.9858" y1="195.2852" x2="639.9858" y2="30.6747"><stop offset="0.0083" stop-color="#E6D6C4"/><stop offset="0.9959" stop-color="#FFEDD9"/></linearGradient><polygon fill="url(#SVGID_10_)" points="839 139 441 139 -0.145 -16.323 1280.115 -16.387 "/><polygon fill="#F0E2CF" points="303.228 389.091 0 412 0 437 303.28 407.5 "/><polygon fill="#F7EAD6" points="304 385.545 0 404 0 412 304 389.091 "/><polygon fill="#F0E2CF" points="440.611 375.145 303.228 389.091 303 407.333 440.616 386.5 "/><polygon fill="#F7EAD6" points="440.616 372.763 303 385.606 303.228 389.091 440.611 375.145 "/><rect x="441" y="375" fill="#F0E2CF" width="398" height="12"/><rect x="441" y="373" fill="#F7EAD6" width="398" height="2"/></g><g id="Calque_2" display="none"><radialGradient id="SVGID_11_" cx="641.5" cy="410.4395" r="232.5801" gradientTransform="matrix(1 0 0 0.0983 0 370.0744)" gradientUnits="userSpaceOnUse"><stop offset="0" style="stop-color:#000000;stop-opacity:0.4"/><stop offset="1" style="stop-color:#000000;stop-opacity:0.1"/></radialGradient><ellipse display="inline" fill="url(#SVGID_11_)" cx="641.5" cy="410.44" rx="231.834" ry="21.894"/><g display="inline"><rect x="873" y="472" fill="#F0BEBE" width="193" height="21"/><rect x="886" y="497" fill="#DBC5B8" width="167" height="11"/><rect x="886" y="493" fill="#C7B4A8" width="167" height="4"/><rect x="886" y="508" fill="#DBC5B8" width="11" height="125"/><rect x="1042" y="508" fill="#DBC5B8" width="11" height="125"/></g><path display="inline" fill="#E8D0C3" d="M859 404c0 4.418-3.582 8-8 8H432c-4.418 0-8-3.582-8-8v-76c0-4.418 3.582-8 8-8h419c4.418 0 8 3.582 8 8V404z"/><rect x="414" y="314" display="inline" fill="#F7D0D0" width="454" height="14"/><polygon display="inline" fill="#EDC8C8" points="868 314 414 314 438 307 844 307 "/><rect x="424" y="328" display="inline" fill="#D6C0B3" width="435" height="6"/></g></svg>