<svg xmlns="http://www.w3.org/2000/svg" width="1280" height="800" viewBox="0 0 1280 800">
  <linearGradient id="a" x1="640" x2="640" y1="154" y2="403" gradientUnits="userSpaceOnUse">
    <stop offset="0" stop-color="#FFE2BF"/>
    <stop offset=".608" stop-color="#FFE0BD"/>
    <stop offset=".909" stop-color="#FFD8B7"/>
    <stop offset="1" stop-color="#FFD4B3"/>
  </linearGradient>
  <path fill="url(#a)" d="M431 154h418v249H431z"/>
  <linearGradient id="b" x1="533.384" x2="533.384" y1="18" y2="465" gradientUnits="userSpaceOnUse" gradientTransform="matrix(-1 0 0 1 1592.885 0)">
    <stop offset="0" stop-color="#FFE2BF"/>
    <stop offset=".581" stop-color="#FFE0BD"/>
    <stop offset=".877" stop-color="#FFD8B6"/>
    <stop offset="1" stop-color="#FFD2B1"/>
  </linearGradient>
  <path fill="url(#b)" d="M839 18h441v447H839z"/>
  <linearGradient id="c" x1="220.5" x2="220.5" y1="18" y2="465" gradientUnits="userSpaceOnUse">
    <stop offset="0" stop-color="#FFE2BF"/>
    <stop offset=".581" stop-color="#FFE0BD"/>
    <stop offset=".877" stop-color="#FFD8B6"/>
    <stop offset="1" stop-color="#FFD2B1"/>
  </linearGradient>
  <path fill="url(#c)" d="M0 18h441v447H0z"/>
  <linearGradient id="d" x1="640" x2="640" y1="213.87" y2="47.55" gradientUnits="userSpaceOnUse">
    <stop offset=".008" stop-color="#FFD0AF"/>
    <stop offset=".996" stop-color="#FFE2BF"/>
  </linearGradient>
  <path fill="url(#d)" d="M0 0h1280v157H0z"/>
  <linearGradient id="e" x1="640" x2="640" y1="800" y2="404" gradientUnits="userSpaceOnUse">
    <stop offset="0" stop-color="#fff"/>
    <stop offset=".594" stop-color="#FDFDFD"/>
    <stop offset=".808" stop-color="#F6F6F6"/>
    <stop offset=".96" stop-color="#EBEBEB"/>
    <stop offset="1" stop-color="#E6E6E6"/>
  </linearGradient>
  <path fill="url(#e)" d="M1280 800H0V455l440.78-51h398.345L1280 455z"/>
  <path fill="#FFD3B0" d="M440 155h399v24H440z"/>
  <path fill="#FFC8A7" d="M839 179H441l23.5 2h351z"/>
  <linearGradient id="f" x1="220.656" x2="220.656" y1="238.432" y2="141.751" gradientUnits="userSpaceOnUse">
    <stop offset="0" stop-color="#FFE2BF"/>
    <stop offset=".282" stop-color="#fdb"/>
    <stop offset="1" stop-color="#FFD3B5"/>
  </linearGradient>
  <path fill="url(#f)" d="M441.312 179L0 137.602V247"/>
  <linearGradient id="g" x1="915.841" x2="915.841" y1="238.432" y2="141.751" gradientUnits="userSpaceOnUse" gradientTransform="matrix(-1 0 0 1 1975.369 0)">
    <stop offset="0" stop-color="#FFE2BF"/>
    <stop offset=".282" stop-color="#fdb"/>
    <stop offset="1" stop-color="#FFD3B5"/>
  </linearGradient>
  <path fill="url(#g)" d="M839.057 179L1280 137.602V247"/>
  <path fill="#FFCFB0" d="M976.715 407.09L1280 430v25l-303.31-29.5z"/>
  <path fill="#FFDBBE" d="M976 403.545L1280 422v8l-304-22.91z"/>
  <path fill="#FFCFB0" d="M839 393l137.657 14.09.228 18.243L839 404.53z"/>
  <path fill="#FFDBBE" d="M839 391l137.885 12.606-.228 3.485L839 393z"/>
  <linearGradient id="h" x1="10.645" x2="443.467" y1="42.31" y2="139.637" gradientUnits="userSpaceOnUse">
    <stop offset="0" stop-color="#FFD6B4"/>
    <stop offset="1" stop-color="#FFD1AF"/>
  </linearGradient>
  <path fill="url(#h)" d="M441 179L0 79.426V0l441 154.872z"/>
  <linearGradient id="i" x1="2.35" x2="440.248" y1="108.801" y2="162.474" gradientUnits="userSpaceOnUse">
    <stop offset="0" stop-color="#FFCEAC"/>
    <stop offset=".657" stop-color="#FFC8A7"/>
    <stop offset="1" stop-color="#FFC2A2"/>
  </linearGradient>
  <path fill="url(#i)" d="M0 137.602L379.66 179h61.37L0 79.426z"/>
  <linearGradient id="j" x1="499.53" x2="932.352" y1="42.311" y2="139.638" gradientUnits="userSpaceOnUse" gradientTransform="matrix(-1 0 0 1 1768.885 0)">
    <stop offset="0" stop-color="#FFD6B4"/>
    <stop offset="1" stop-color="#FFD1AF"/>
  </linearGradient>
  <path fill="url(#j)" d="M839 179l441-99.672V0L839 154.872z"/>
  <linearGradient id="k" x1="491.231" x2="929.251" y1="108.752" y2="162.44" gradientUnits="userSpaceOnUse" gradientTransform="matrix(-1 0 0 1 1768.885 0)">
    <stop offset="0" stop-color="#FFCEAC"/>
    <stop offset=".657" stop-color="#FFC8A7"/>
    <stop offset="1" stop-color="#FFC2A2"/>
  </linearGradient>
  <path fill="url(#k)" d="M1280 137.602L900.226 179h-61.37L1280 79.328z"/>
  <path fill="#FFCFB0" d="M303.228 407.09L0 430v25l303.28-29.5z"/>
  <path fill="#FFDBBE" d="M304 403.545L0 422v8l304-22.91z"/>
  <path fill="#FFCFB0" d="M441 393l-137.772 14.09-.228 18.243L441 404.5z"/>
  <path fill="#FFDBBE" d="M441 391l-138 12.606.228 3.485L441 393z"/>
  <path fill="#FFCFB0" d="M839 404.53l-398-.03V393h398z"/>
  <path fill="#FFDBBE" d="M441 391h398v2H441z"/>
</svg>
