<svg xmlns="http://www.w3.org/2000/svg" version="1.1" id="bgff" x="0" y="0" width="1280" height="810" viewBox="0 0 1280 810" xml:space="preserve" enable-background="new 0 0 1280 810" preserveAspectRatio="none"><linearGradient id="SVGID_1_" gradientUnits="userSpaceOnUse" x1="640" y1="146" x2="640" y2="395"><stop offset="0" stop-color="#FFE2BF"/><stop offset="0.6" stop-color="#FFE0BD"/><stop offset="0.9" stop-color="#FFD8B7"/><stop offset="1" stop-color="#FFD4B3"/></linearGradient><rect x="441" y="146" width="398" height="249" fill="url(#SVGID_1_)"/><linearGradient id="SVGID_2_" gradientUnits="userSpaceOnUse" x1="220.5" y1="10" x2="220.5" y2="457"><stop offset="0" stop-color="#FFE2BF"/><stop offset="0.6" stop-color="#FFE0BD"/><stop offset="0.9" stop-color="#FFD8B6"/><stop offset="1" stop-color="#FFD2B1"/></linearGradient><rect y="10" width="441" height="447" fill="url(#SVGID_2_)"/><rect x="440" y="147" width="399" height="24" fill="#FFD3B0"/><polygon points="839 171 441 171 464.5 173 815.5 173 " fill="#FFC8A7"/><linearGradient id="SVGID_3_" gradientUnits="userSpaceOnUse" x1="220.7" y1="230.4" x2="220.7" y2="133.8"><stop offset="0" stop-color="#FFE2BF"/><stop offset="0.3" stop-color="#FFDDBB"/><stop offset="1" stop-color="#FFD3B5"/></linearGradient><polyline points="441.3 171 0.1 129.6 0.3 239 " fill="url(#SVGID_3_)"/><linearGradient id="SVGID_4_" gradientUnits="userSpaceOnUse" x1="533.4" y1="10" x2="533.4" y2="457" gradientTransform="matrix(-1 0 0 1 1592.8848 0)"><stop offset="0" stop-color="#FFE2BF"/><stop offset="0.6" stop-color="#FFE0BD"/><stop offset="0.9" stop-color="#FFD8B6"/><stop offset="1" stop-color="#FFD2B1"/></linearGradient><rect x="839" y="10" width="441" height="447" fill="url(#SVGID_4_)"/><path d="M394.4 609.5c-40.4-6.9-80.3-15.3-120.1-25.3 31.2-22.4 61.9-45.4 92.8-68.2 31.9 5.4 63.8 9.8 95.9 13C439.4 555.2 416.6 582.1 394.4 609.5zM367.1 516c-33.3-5.9-66.4-12.9-99.3-20.7 29.6-15.8 59.3-31.1 90.5-43.6 28.1 4.7 56.3 9.2 84.6 13.2C416.6 480.5 391.8 497.9 367.1 516z" fill="#FAA8A0"/><path d="M463 529c-32.2-3.2-64.1-7.6-95.9-13 24.7-18 49.5-35.5 75.8-51.2 24.3 3.2 48.6 6.3 73 7.9C498 491.3 480.4 510 463 529zM274.4 584.2c-38.9-10.2-77.3-22-115.2-35.4 37.1-16.2 73-34.4 108.7-53.5 32.9 7.9 66 14.8 99.3 20.7C336.2 538.8 305.5 561.8 274.4 584.2z" fill="#FFEDD9"/><path d="M159.1 548.8c-37-13.5-73.2-28.6-108.8-45.5 41.2-9 81.3-20.9 121.1-34.8 31.9 9.9 63.9 18.8 96.3 26.8C232.1 514.3 196.2 532.5 159.1 548.8zM171.5 468.4c-29.4-9.5-58.3-19.8-87-31.4 38.1-5.7 76-11.6 114.4-14.9 24.8 4.8 49.5 9.6 74.3 14.3C238.6 444.9 205.1 456.5 171.5 468.4z" fill="#FAA8A0"/><path d="M267.8 495.3c-32.4-8-64.5-16.9-96.3-26.8 33.6-11.9 67.1-23.5 101.8-32.1 28.3 5.3 56.6 10.4 85 15.3C327.1 464.2 297.4 479.4 267.8 495.3zM50.3 503.2c-34.6-16.9-68.1-35.3-100.7-55.7 45.3-0.7 90.1-4 134.9-10.5 28.6 11.6 57.6 21.9 87 31.4C131.6 482.3 91.6 494.2 50.3 503.2z" fill="#FFEDD9"/><path d="M642.5 629.7c-41.7-0.2-83.3-1.9-124.9-5.1 11.2-29 22.7-57.8 34.7-86.5 30 1.9 60 2.9 90.1 3.1C642.5 570.7 642.5 600.2 642.5 629.7zM552.4 538.2c-29.9-2.2-59.6-5.2-89.4-9.2 17.3-19 35-37.7 52.8-56.3 21.1 1.3 42.2 2.4 63.4 3.2C570.2 496.6 561.2 517.4 552.4 538.2z" fill="#FAA8A0"/><path d="M642.5 541.2c-30.1-0.1-60.1-1.2-90.1-3.1 8.8-20.8 17.8-41.6 26.8-62.3 21.1 0.6 42.2 1 63.3 1.1C642.5 498.4 642.5 519.8 642.5 541.2zM517.7 624.6c-41.3-3.5-82.3-8.6-123.2-15.2 22.2-27.4 45-54.3 68.6-80.5 29.7 3.9 59.5 7 89.4 9.2C540.4 566.8 528.8 595.7 517.7 624.6z" fill="#FFEDD9"/><path d="M890.6 609.5c-40.9 6.6-81.9 11.6-123.2 15.2 -11.2-29-22.7-57.8-34.7-86.5 29.9-2.2 59.6-5.2 89.4-9.2C845.6 555.2 868.4 582.1 890.6 609.5zM732.6 538.2c-30 1.9-60 2.9-90.1 3.1 0-21.4 0-42.9 0-64.3 21.1-0.1 42.2-0.4 63.3-1.1C714.8 496.6 723.8 517.4 732.6 538.2z" fill="#FAA8A0"/><path d="M822 529c-29.7 3.9-59.5 7-89.4 9.2 -8.8-20.8-17.8-41.6-26.8-62.3 21.1-0.8 42.3-1.8 63.4-3.2C787 491.3 804.6 510 822 529zM767.4 624.6c-41.6 3.2-83.1 4.9-124.8 5.1 0-29.5 0-59 0-88.5 30.1-0.1 60.1-1.2 90.1-3.1C744.6 566.8 756.2 595.7 767.4 624.6z" fill="#FFEDD9"/><path d="M1125.9 548.8c-37.9 13.5-76.3 25.2-115.2 35.4 -31.3-22.4-62.1-45.6-93-68.5 33.2-6.1 66-13.3 98.7-21.5C1052.3 513.7 1088.4 532.3 1125.9 548.8zM917.6 515.6c-31.8 5.6-63.6 10.2-95.7 13.4 -17.3-19-35-37.7-52.8-56.3 24.3-1.7 48.4-5 72.5-8.6C868 479.9 892.9 497.5 917.6 515.6z" fill="#FAA8A0"/><path d="M1016.4 494.2c-32.7 8.1-65.6 15.3-98.7 21.5 -24.7-18.2-49.7-35.8-76-51.5 27.9-4.4 55.7-9.4 83.4-14.7C956.6 462.2 986.5 477.9 1016.4 494.2zM1010.7 584.2c-39.7 10-79.7 18.4-120.1 25.3 -22.2-27.4-45-54.3-68.6-80.5 32.1-3.2 63.9-7.8 95.7-13.4C948.6 538.6 979.4 561.7 1010.7 584.2z" fill="#FFEDD9"/><path d="M1335.4 447.6c-32.7 20.3-66.2 38.8-100.7 55.7 -41.9-9.3-82.3-21.8-122.5-36.7 29.3-9.7 58.1-20.1 86.7-31.7C1244.1 442.7 1289.4 446.8 1335.4 447.6zM1112.1 466.6c-31.7 10.1-63.6 19.3-95.8 27.6 -29.9-16.3-59.8-32-91.3-44.7 28-5.4 55.9-11.1 83.9-16.8C1044.2 441.5 1078.1 453.9 1112.1 466.6z" fill="#FAA8A0"/><path d="M1198.8 434.9c-28.5 11.6-57.4 22.1-86.7 31.7 -34.1-12.7-67.9-25.1-103.2-33.9 24.6-5 49.2-10.1 73.8-14.9C1121.8 421.2 1160.2 428.1 1198.8 434.9zM1234.7 503.2c-35.6 16.9-71.8 32-108.8 45.5 -37.4-16.4-73.6-35.1-109.5-54.6 32.2-8.3 64.1-17.4 95.8-27.6C1152.4 481.4 1192.8 493.9 1234.7 503.2z" fill="#FFEDD9"/><path d="M515.9 472.7c-24.4-1.7-48.7-4.7-73-7.9 19.2-12.3 38.2-24.8 57.2-37.5 18.1 1.6 36.1 3.1 54.2 3.9C542 445.5 528.9 459.1 515.9 472.7zM500.1 427.3c-20-1.9-40-4.2-60-6.5 25.3-9.6 50.7-18.4 76.8-25.6 10.5 0 21 0 31.4 0C532.1 405.7 516.1 416.5 500.1 427.3z" fill="#FAA8A0"/><path d="M554.3 431.2c-18.1-0.8-36.2-2.3-54.2-3.9 16-10.8 32-21.6 48.2-32.2 10.5 0 21 0 31.4 0C572.2 408.1 563.8 419.6 554.3 431.2zM442.9 464.8c-28.3-4-56.4-8.4-84.6-13.2 27.4-9.8 54.6-20.4 81.7-30.9 20 2.4 40 4.7 60 6.5C481.1 440 462.1 452.5 442.9 464.8z" fill="#FFEDD9"/><path d="M358.3 451.6c-28.4-4.9-56.7-10-85-15.3 35.7-6.7 71.1-15.1 106.5-23.2 20.1 2.6 40.2 5.2 60.3 7.6C412.8 431.2 385.7 441.8 358.3 451.6zM379.8 413.1c-18.3-2.4-36.6-4.8-54.9-7.1 42.9-6 85.7-10.5 129.1-10.9 10.5 0 21 0 31.4 0C449.7 398.7 414.8 405.3 379.8 413.1z" fill="#FAA8A0"/><path d="M440 420.8c-20.1-2.4-40.2-5-60.3-7.6 35-7.8 69.9-14.4 105.6-18 10.5 0 21 0 31.4 0C490.7 402.3 465.3 411.2 440 420.8zM273.3 436.4c-24.8-4.7-49.6-9.4-74.3-14.3 42.2-3.6 84-10 126-16 18.3 2.3 36.6 4.7 54.9 7.1C344.3 421.2 309 429.6 273.3 436.4z" fill="#FFEDD9"/><path d="M642.5 477c-21.1-0.1-42.2-0.4-63.3-1.1 6.6-14.3 13.2-28.5 19.2-43.1 14.7 0.3 29.4 0.5 44.1 0.5C642.5 447.9 642.5 462.4 642.5 477zM598.4 432.8c-14.7-0.4-29.4-0.9-44.1-1.6 9.5-11.6 17.9-23.1 25.4-36.1 10.5 0 20.9 0 31.4 0C607.8 408 603.5 420.5 598.4 432.8z" fill="#FAA8A0"/><path d="M642.5 433.3c-14.7 0-29.4-0.2-44.1-0.5 5-12.3 9.4-24.8 12.7-37.7 10.5 0 20.9 0 31.4 0C642.5 407.9 642.5 420.6 642.5 433.3zM579.2 475.9c-21.1-0.8-42.3-1.8-63.4-3.2 13-13.6 26.2-27.2 38.4-41.5 14.7 0.7 29.4 1.2 44.1 1.6C592.5 447.4 585.8 461.6 579.2 475.9z" fill="#FFEDD9"/><path d="M769.1 472.7c-21.1 1.3-42.2 2.4-63.4 3.2 -6.6-14.3-13.2-28.5-19.2-43.1 14.7-0.4 29.4-0.9 44.1-1.6C743 445.6 756.1 459.1 769.1 472.7zM686.6 432.8c-14.7 0.3-29.4 0.5-44.1 0.5 0-12.7 0-25.5 0-38.2 10.5 0 20.9 0 31.4 0C677.2 408 681.6 420.5 686.6 432.8z" fill="#FAA8A0"/><path d="M730.7 431.2c-14.7 0.7-29.4 1.2-44.1 1.6 -5-12.3-9.4-24.8-12.7-37.7 10.5 0 20.9 0 31.4 0C712.8 408.1 721.2 419.6 730.7 431.2zM705.8 475.9c-21.1 0.6-42.2 1-63.3 1.1 0-14.5 0-29.1 0-43.6 14.7 0 29.4-0.2 44.1-0.5C692.5 447.4 699.2 461.6 705.8 475.9z" fill="#FFEDD9"/><path d="M925 449.5c-27.7 5.3-55.5 10.3-83.4 14.7 -19.3-12.3-38.5-24.6-57.7-37.2 19.6-2.1 39.2-4.6 58.7-7.3C870.1 429.6 897.5 439.7 925 449.5zM784 427c-17.7 1.8-35.4 3.5-53.2 4.3 -9.5-11.6-17.9-23.1-25.4-36.1 10.5 0 21 0 31.4 0C752.4 405.9 768.1 416.5 784 427z" fill="#FAA8A0"/><path d="M842.7 419.7c-19.5 2.7-39.1 5.2-58.7 7.3 -15.8-10.5-31.6-21.1-47.2-31.8 10.5 0 21 0 31.4 0C793.3 402.4 818 410.9 842.7 419.7zM841.6 464.1c-24.1 3.6-48.2 6.9-72.5 8.6 -13-13.6-26.2-27.2-38.4-41.5 17.8-0.8 35.5-2.4 53.2-4.3C803.1 439.5 822.3 451.9 841.6 464.1z" fill="#FFEDD9"/><path d="M1082.7 417.7c-24.6 4.8-49.2 9.9-73.8 14.9 -35.9-6.6-71.6-14.1-107.3-21.4 18-2.6 35.9-5.1 53.9-7.4C997.9 408.9 1040.2 414.2 1082.7 417.7zM901.6 411.3c-19.6 2.8-39.3 5.7-58.9 8.4 -24.6-8.8-49.3-17.2-74.5-24.5 10.5 0 21 0 31.4 0C833.9 398.8 867.8 404.6 901.6 411.3z" fill="#FAA8A0"/><path d="M955.5 403.9c-18 2.3-35.9 4.9-53.9 7.4 -33.8-6.7-67.7-12.6-102-16.2 10.5 0 21 0 31.4 0C872.8 395.5 914.1 399.2 955.5 403.9zM1008.9 432.7c-27.9 5.7-55.9 11.4-83.9 16.8 -27.5-9.7-54.9-19.9-82.4-29.8 19.7-2.7 39.3-5.5 58.9-8.4C937.4 418.5 973 426.1 1008.9 432.7z" fill="#FFEDD9"/><path d="M204.1 880.6c-67.8-17.6-134.1-39.3-198.7-66.3 45.6-45.8 92.7-89.9 142-131.7 52.9 16.9 106.6 30.3 161.2 41C272.3 774.9 237.7 827.4 204.1 880.6zM147.4 682.6c-50.2-16.6-98.9-36-146.4-59.3 51.9-26.7 104.6-51.4 158.1-74.5 37.9 13.5 76.3 25.2 115.2 35.4C230.7 615.3 188.5 648.1 147.4 682.6z" fill="#FAA8A0"/><path d="M308.5 723.5c-54.5-10.7-108.2-24.1-161.2-41 41.1-34.4 83.3-67.2 127-98.4 39.7 10 79.7 18.4 120.1 25.3C364.6 646.6 336.2 684.8 308.5 723.5zM5.4 814.3c-60.6-26.1-118.8-56.5-174-92.8 55.1-35.2 111.6-67.9 169.6-98.2 47.4 23.2 96.2 42.7 146.4 59.3C98.1 724.4 50.9 768.4 5.4 814.3z" fill="#FFEDD9"/><path d="M-168.6 721.4c-51.3-34.9-98.6-74-141-119.3 60.6-21.1 121.9-39.7 183.9-56.5 40.1 29.6 82.3 55.1 126.7 77.6C-57 653.5-113.5 686.2-168.6 721.4zM-125.7 545.7c-37.3-28.7-71.4-60.2-102.1-95.9 59.1-1.1 118.3-1.6 177.4-2.1 32.7 20.3 66.2 38.8 100.7 55.7C-8.6 516.2-67.4 530.1-125.7 545.7z" fill="#FAA8A0"/><path d="M1 623.3c-44.4-22.5-86.6-48-126.7-77.6 58.4-15.5 117.1-29.4 176-42.4 35.6 16.9 71.8 32 108.8 45.5C105.6 571.9 52.9 596.6 1 623.3zM-309.6 602.1c-39.9-44.3-73.4-92.4-99.8-145.9 60.5-3.3 121.1-5.3 181.6-6.5 30.7 35.8 64.7 67.3 102.1 95.9C-187.7 562.4-249 581-309.6 602.1z" fill="#FFEDD9"/><path d="M642.5 933.6c-74.7-0.2-149.1-4.6-223.3-13.3 17.2-56.7 35.1-113.1 53.9-169.3 56.4 5.9 112.8 8.9 169.4 9.2C642.5 818 642.5 875.8 642.5 933.6zM473.1 751c-55.4-6.3-110.1-15.3-164.5-27.5 27.6-38.8 56-77 85.9-114.1 40.9 6.6 81.9 11.6 123.2 15.2C502.1 666.5 487.4 708.7 473.1 751z" fill="#FAA8A0"/><path d="M642.5 760.2c-56.7-0.2-113.1-3.3-169.4-9.2 14.3-42.3 29.1-84.5 44.6-126.3 41.6 3.2 83.1 4.9 124.9 5.1C642.5 673.2 642.5 716.7 642.5 760.2zM419.2 920.3c-72.5-9-144.2-22-215.1-39.8 33.6-53.2 68.2-105.6 104.5-157 54.4 12.1 109.2 21.2 164.5 27.5C454.3 807.2 436.4 863.6 419.2 920.3z" fill="#FFEDD9"/><path d="M1080.9 880.6c-70.9 17.7-142.6 30.8-215.1 39.8 -17.2-56.7-35.1-113.1-53.9-169.3 55.4-6.3 110.1-15.3 164.5-27.5C1012.7 774.9 1047.3 827.4 1080.9 880.6zM811.9 751c-56.4 5.9-112.8 8.9-169.4 9.2 0-43.5 0-87 0-130.4 41.7-0.2 83.3-1.9 124.8-5.1C782.9 666.5 797.7 708.7 811.9 751z" fill="#FAA8A0"/><path d="M976.4 723.5C922.1 735.7 867.3 744.7 811.9 751c-14.3-42.3-29.1-84.5-44.6-126.4 41.3-3.5 82.3-8.6 123.2-15.2C920.4 646.6 948.8 684.8 976.4 723.5zM865.8 920.3c-74.2 8.6-148.6 13-223.3 13.3 0-57.8 0-115.6 0-173.4 56.7-0.2 113.1-3.3 169.4-9.2C830.7 807.2 848.6 863.6 865.8 920.3z" fill="#FFEDD9"/><path d="M1453.6 721.4c-55.2 36.3-113.3 66.7-174 92.8 -45.5-45.9-92.7-89.8-142-131.7 50.2-16.6 98.9-36 146.4-59.3C1342 653.5 1398.5 686.2 1453.6 721.4zM1137.6 682.6c-52.9 16.9-106.6 30.3-161.2 41 -27.6-38.8-56-77-85.9-114.1 40.4-6.9 80.4-15.3 120.1-25.3C1054.3 615.3 1096.5 648.1 1137.6 682.6z" fill="#FAA8A0"/><path d="M1284 623.3c-47.4 23.2-96.2 42.7-146.4 59.3 -41.1-34.4-83.3-67.2-127-98.4 38.9-10.2 77.3-22 115.2-35.4C1179.4 571.9 1232.1 596.6 1284 623.3zM1279.6 814.3c-64.6 27-130.9 48.7-198.7 66.3 -33.6-53.2-68.2-105.6-104.5-157 54.5-10.7 108.2-24.1 161.2-41C1186.9 724.4 1234.1 768.4 1279.6 814.3z" fill="#FFEDD9"/><path d="M1694.4 456.2c-26.5 53.5-59.9 101.6-99.8 145.9 -60.6-21.1-121.9-39.7-183.9-56.5 37.3-28.7 71.4-60.2 102.1-95.9C1573.4 451 1633.9 453 1694.4 456.2zM1410.7 545.7c-40.1 29.6-82.3 55.1-126.7 77.6 -51.9-26.7-104.6-51.4-158.1-74.5 37-13.5 73.2-28.6 108.8-45.5C1293.6 516.2 1352.4 530.1 1410.7 545.7z" fill="#FAA8A0"/><path d="M1512.8 449.7c-30.7 35.8-64.7 67.3-102.1 95.9 -58.4-15.5-117.1-29.4-176-42.4 34.6-16.9 68.1-35.3 100.7-55.7C1394.6 448.1 1453.7 448.6 1512.8 449.7zM1594.6 602.1c-42.5 45.3-89.7 84.5-141 119.3 -55.1-35.2-111.6-67.9-169.6-98.2 44.4-22.5 86.6-48 126.7-77.6C1472.7 562.4 1534 581 1594.6 602.1z" fill="#FFEDD9"/><linearGradient id="SVGID_5_" gradientUnits="userSpaceOnUse" x1="915.7" y1="230.4" x2="915.7" y2="133.8" gradientTransform="matrix(-1 0 0 1 1975.3691 0)"><stop offset="0" stop-color="#FFE2BF"/><stop offset="0.3" stop-color="#FFDDBB"/><stop offset="1" stop-color="#FFD3B5"/></linearGradient><polyline points="839.1 171 1280.3 129.6 1280.1 239 " fill="url(#SVGID_5_)"/><polygon points="976.7 399.1 1280 422 1280 447 976.7 417.5 " fill="#FFCFB0"/><polygon points="976 395.5 1280 414 1280 422 976 399.1 " fill="#FFDBBE"/><polygon points="839.3 385.1 976.7 399.1 976.9 417.3 839.3 396.5 " fill="#FFCFB0"/><polygon points="839.3 382.8 976.9 395.6 976.7 399.1 839.3 385.1 " fill="#FFDBBE"/><linearGradient id="SVGID_6_" gradientUnits="userSpaceOnUse" x1="10.5" y1="34.1" x2="443.5" y2="131.5"><stop offset="0" stop-color="#FFD6B4"/><stop offset="1" stop-color="#FFD1AF"/></linearGradient><polygon points="441 171 0.4 71.4 -0.1 -8.4 441 146.9 " fill="url(#SVGID_6_)"/><linearGradient id="SVGID_7_" gradientUnits="userSpaceOnUse" x1="2.8" y1="100.8" x2="440.3" y2="154.4"><stop offset="0" stop-color="#FFCEAC"/><stop offset="0.7" stop-color="#FFC8A7"/><stop offset="1" stop-color="#FFC2A2"/></linearGradient><polygon points="0.3 129.6 379.7 171 441 171 0.4 71.4 " fill="url(#SVGID_7_)"/><linearGradient id="SVGID_8_" gradientUnits="userSpaceOnUse" x1="499.4" y1="34.1" x2="932.4" y2="131.5" gradientTransform="matrix(-1 0 0 1 1768.8848 0)"><stop offset="0" stop-color="#FFD6B4"/><stop offset="1" stop-color="#FFD1AF"/></linearGradient><polygon points="839 171 1279.5 71.4 1280.1 -8.4 839 146.9 " fill="url(#SVGID_8_)"/><linearGradient id="SVGID_9_" gradientUnits="userSpaceOnUse" x1="491.8" y1="100.8" x2="929.3" y2="154.4" gradientTransform="matrix(-1 0 0 1 1768.8848 0)"><stop offset="0" stop-color="#FFCEAC"/><stop offset="0.7" stop-color="#FFC8A7"/><stop offset="1" stop-color="#FFC2A2"/></linearGradient><polygon points="1279.6 129.6 900.2 171 838.9 171 1279.4 71.4 " fill="url(#SVGID_9_)"/><linearGradient id="SVGID_10_" gradientUnits="userSpaceOnUse" x1="640" y1="205.3" x2="640" y2="40.7"><stop offset="0" stop-color="#FFD0AF"/><stop offset="1" stop-color="#FFE2BF"/></linearGradient><polygon points="839 149 441 149 -0.1 -6.3 1280.1 -6.4 " fill="url(#SVGID_10_)"/><polygon points="303.2 399.1 0 422 0 447 303.3 417.5 " fill="#FFCFB0"/><polygon points="304 395.5 0 414 0 422 304 399.1 " fill="#FFDBBE"/><polygon points="440.6 385.1 303.2 399.1 303 417.3 440.6 396.5 " fill="#FFCFB0"/><polygon points="440.6 382.8 303 395.6 303.2 399.1 440.6 385.1 " fill="#FFDBBE"/><rect x="441" y="385" width="398" height="12" fill="#FFCFB0"/><rect x="441" y="383" width="398" height="2" fill="#FFDBBE"/></svg>