<svg xmlns="http://www.w3.org/2000/svg" width="67" height="67" viewBox="0 0 67 67"><path fill="#ffddba" fill-rule="evenodd" d="M49.84 48.14V36.42c0-6.27-3.35-9.2-7.82-9.2-3.6 0-5.22 2-6.12 3.38v-2.9h-6.8c.1 1.93 0 20.44 0 20.44h6.8v-11.4c0-.62.05-1.23.23-1.67.5-1.22 1.6-2.48 3.48-2.48 2.48 0 3.46 1.85 3.46 4.6v10.93h6.8zM21.96 24.92c2.37 0 3.84-1.57 3.84-3.53-.04-2-1.47-3.55-3.8-3.55s-3.84 1.53-3.84 3.53c0 1.95 1.48 3.52 3.76 3.52h.04zM33 64C16.43 64 3 50.57 3 34S16.43 4 33 4s30 13.43 30 30-13.43 30-30 30zm-7.65-15.86V27.7h-6.8v20.44h6.8z" clip-rule="evenodd"/></svg>