<svg xmlns="http://www.w3.org/2000/svg" xmlns:xlink="http://www.w3.org/1999/xlink" width="883" height="435" viewBox="0 0 883 435">
<!--   <linearGradient id="a" gradientUnits="userSpaceOnUse" x1="441.79" y1="415.68" x2="441.79" y2="206">
    <stop offset="0" stop-color="#A1DCFF"/>
    <stop offset=".4" stop-color="#A1DCFF"/>
    <stop offset=".6" stop-color="#9BD3F5"/>
    <stop offset="1" stop-color="#9BD3F5"/>
  </linearGradient>
  <path d="M443 415.68c-134.06 0-268.5-10.34-399.58-30.75-21.37-3.37-28.6-10.43-30.93-15.75-2.6-5.93-.2-12.34 6.6-17.62l161.2-129.03c12.1-9.36 35.1-16.53 52.5-16.53h417.8c17.4 0 40.4 7.17 52.4 16.47l161.4 129.28c6.8 5.3 9.2 11.76 6.6 17.8-2.3 5.36-9.5 12.4-30.7 15.75-130.3 20.18-264 30.38-397.3 30.38z" fill="url(#a)"/>
  <path d="M647.05 211c15.3 0 36.27 6.38 46.8 14.94 52.86 44.35 105.72 93.2 158.58 137.54 10.48 8.55 8.6 21.63-20.23 26.4-128.32 20.8-258.8 31.08-389.2 31.08-131.27 0-262.46-10.56-391.4-31.56-28.8-4.76-31.02-17.7-20.54-26.26 52.86-44.34 105.7-92.85 158.57-137.2 10.53-8.55 31.5-14.94 46.8-14.94h410.62zm0-5h-410.7c-18.98 0-43.12 7.52-56.17 18.1-.05.05-.1-.24-.14-.2L21.54 356.72c-8.1 6.63-11.03 15.07-7.85 22.74 2.7 6.7 11.1 15.5 35.1 19.46C178.1 420 310.7 430.64 443 430.64c131.5 0 263.35-10.57 391.9-31.4 23.85-3.94 32.18-12.8 34.97-19.53 3.23-7.8.27-16.4-7.92-23.1L778 286.1l-74.55-62.53c-.05-.04-.1.58-.15.54-13.04-10.5-37.18-18.1-56.15-18.1h-.1z" fill="#84B3CF"/>
  <path d="M869.28 349.94l-85.42-71.98L708 214.04c-.04-.04-.1.1-.14.06-13.27-10.82-37.78-15.1-57.1-15.1H232.82c-19.3 0-43.9 4.28-57.18 15.1-.05.04-.1 0-.14.03L14.2 350c-6.87 5.66-10.06 12.64-9.05 19.36-.46 3-.12 6 1.08 8.9 2.84 6.87 11.34 15.88 35.77 19.94 131.57 21.53 266.48 32.43 401 32.43 133.8 0 267.96-10.8 398.75-32.07 24.27-4.04 32.74-13.1 35.58-19.97 1.22-3 1.57-6 1.1-9.1 1.02-6.8-2.2-13.9-9.15-19.6zM698.25 221.36c53.78 45.32 107.56 95.3 161.33 140.6 2.9 2.37 4.84 4.95 5.6 7.75-1.66 6-9.46 11.5-26.18 14.3-130.56 21.3-263.3 31.8-396 31.8-133.54 0-267.02-10.7-398.2-32.2-16.8-2.8-24.7-8.3-26.38-14.2.75-2.7 2.65-5.3 5.48-7.6 53.78-45.3 107.56-94.9 161.33-140.3 10.73-8.7 32.05-15.3 47.63-15.3h417.77c15.58 0 36.9 6.6 47.62 15.4z" fill="#91C7E6"/> -->
  <linearGradient id="b" gradientUnits="userSpaceOnUse" x1="147.24" y1="235.44" x2="276.43" y2="235.44">
    <stop offset=".48" stop-color="#F7F7F7"/>
    <stop offset=".52" stop-color="#EAEAEA"/>
  </linearGradient>
  <path d="M248.24 327.33c-13.5 17.33-55.2 20.7-74.42-.65-4.06-65.98-9.86-129.5-26.58-187.68 43.06-12.87 86.13-12.87 129.2 0-17.3 58.13-23.43 122-28.2 188.33z" fill="url(#b)"/>
  <path d="M282.15 135.74c0 6.85-31.48 12.4-70.32 12.4-38.83 0-70.3-5.55-70.3-12.4 0-12.42 0-12.42 70.3-12.42 70.32 0 70.32 0 70.32 12.42z" fill="#DEDEDE"/>
  <ellipse cx="211.83" cy="129.12" rx="69.48" ry="11.47" fill="#EBEBEB"/>
  <path d="M276.43 128.3c0 4.68-28.92 8.47-64.6 8.47-35.67 0-64.6-3.8-64.6-8.48 0-8.5 0-8.5 64.6-8.5s64.6 0 64.6 8.5z" fill="#DBDBDB"/>
  <ellipse cx="211.83" cy="124.15" rx="63.83" ry="8.58" fill="#EBEBEB"/>
  <ellipse cx="211.56" cy="125.16" rx="5.15" ry="1.59" fill="#999"/>
  <path d="M211.47 126.77c-1.27 0-2.42-.1-3.47-.47V42.4c0-8.56 4.54-13.9 15.66-18.42 10.24-4.16 26.3-7.92 52.87-14.14L288.7 7c1.88-.45 3.77.7 4.2 2.6.45 1.88-.72 3.76-2.6 4.2l-12.17 2.86C227.06 28.6 215 31.83 215 42.4v83.96c-1.5.4-2.03.4-3.53.4z" fill="#F2F2F2"/>
  <circle cx="289.54" cy="10.42" r="3.46" fill="#E6E6E6"/>
  <radialGradient id="c" cx="441.03" cy="317.05" r="126.98" gradientTransform="matrix(.873 0 0 .438 56.313 173.633)" gradientUnits="userSpaceOnUse">
    <stop offset=".67" stop-color="#D4D4D4"/>
    <stop offset=".73" stop-color="#ddd"/>
    <stop offset=".88" stop-color="#ECECEC"/>
    <stop offset="1" stop-color="#F2F2F2"/>
  </radialGradient>
  <path fill="url(#c)" d="M578.22 379.45l-20 1.16-19.45 2-19.56-4.6-19.5.2-19.5-7.5-19.4 7.8-19.5 4-19.4-9.1-19.6 9.4-19.5-.7-19.4-9.9-19.7 10-19.5-4.62-16.3 8.94 12.7-20.7-4.2-19.8 1.2-18.2 11.5-17.2-5.27-18.67 4.53-17.9 7.5-18.17-7.2-15.2 17.7 6.74 18.48-5.9 18-5.4 17.46.6 17.4 3.9 17.6 2 17.57-5.7 17.9 12.4 17.7-1.8 16.9-11.7L524 247.7l17.5-3 16.63-6.4-8.3 16.7 10.3 18.5-5.75 18.08 2.12 18.1 5.85 17.8 7.5 17.45-2.2 18.8z"/>
  <path d="M534.2 259c0-4.83-.77-9.48-2.28-13.3-.85-2.3-2.26-4.47-4.08-6.54-1 .06-167.4-1-170.65-1.1-2.4 2.42-4.2 5-5.2 7.74-1.5 3.8-2.3 8.4-2.3 13.2 0 4.45.6 9.06 2 13.27-.5 2.85-.7 5.72-.7 8.5 0 4.65.5 9.1 1.4 12.92.9 3.8 2 7 3.4 9.3l.1.1c.3.7.7 1.3 1.2 2 13.1 17.8 46 30.4 84.6 30.4 40.1 0 74.2-13.7 86.1-32.6v-.3c1.3-2.3 2.4-5.4 3.23-9.1.87-3.9 1.4-8.3 1.4-12.9 0-2.8-.2-5.7-.63-8.5 1.4-4.3 2.1-8.9 2.1-13.3z" fill="#9E7738"/>
  <path d="M441.96 334.17c-39.5 0-73.2-13.6-86.6-32.77l-.38-.54c.1 1.37.2 2.55.36 3.9.43 3.96 1.1 8.24 2 10.24l.4 1.23c3.7 10.44 14.28 20.25 29.33 27.14 15.02 6.9 34.42 11.14 55.6 11.14 21.16 0 40.56-4.1 55.6-11 15.03-6.9 25.6-16.8 29.33-27.2l.37-1.2h.02c.9-2 1.5-6.2 2-10.2.2-2.1.4-4.3.5-6.4-.2.2-.3.5-.4.7-12.3 20.4-47.1 35.2-88.2 35.2z" fill="#F7CA63"/>
  <path d="M530.03 276.74c-.34.56-.7 1.1-1.1 1.6C518.47 294 483.53 305.5 442 305.5c-41.5 0-76.46-11.5-86.9-27.15-.4-.52-.76-1.06-1.1-1.6 5.83 17.1 32.25 30.83 66.47 34.96 17.23 2.4 29.48 1.9 42.74.1 34.4-4 61-17.8 66.9-35z" fill="#FAEC26"/>
  <path d="M366.35 273.92c-2.33 3.4-2.6 7.54-1.28 11.23 3.5-.6 7.1-2.86 11.85-4 5.1-1.2 10.62-.04 15.65-.88.33-.06-.57-1.1-.56-1.1-.7-1.23-2.9-1.48-4.1-1.9-2.9-.98-5.6-.78-8.3-2.36-2.6-1.5-5.2-3.6-8.2-4.1-2.5-.5-3.7 1.3-5 3.2zm124.62 9.73c2.96.86 6.44 1.63 9.46 3.4 2.45 1.44 6.75 3.83 7.04 3.84.5 0 1.7-5.2 1.7-7.1.03-3.2.42-6.2.8-9.3-4.56.6-8.34 3-12.9 3.6-2.36.3-4.4.8-6.4 2.3-.3.2-3.73 2.5-3.36 2.5 1.2 0 2.6.2 3.7.6z" fill="#9CD158"/>
  <path d="M432.45 314.8c1.96 1.3 3.65 2.9 5 4.35 1.03 1.1 2.4 2.45 3.9 3.48 1.48 1.04 3.05 1.7 4.42 1.7.54 0 1.06-.1 1.58-.3 1.28-.53 2.7-1.82 4.04-3.33 1.3-1.52 2.6-3.2 4-4.5 1.1-1.02 2.6-1.65 4-2.3 1.4-.64 2.7-1.27 3.5-1.9.1-.07.2-.15.2-.22-.7-.25-1.7-.38-2.7-.38-2 0-4.1.4-5.8.63-3.1.44-6.7 1.2-10.4 1.22-.7 0-1.3-.03-2-.1-4.1-.36-7.8-1.4-11.6-1.93-.7-.1-1.3-.16-1.9-.16-.97 0-1.7.15-2.5.57-.26.12-.57.3-.8.52l-.27.2.23.03c2.46.15 4.7 1.15 6.67 2.43zm-47.85-10.86c1.1 1.14 1.95 2.38 2.6 3.46.5.84 1.2 1.87 2.02 2.76.82.9 1.76 1.6 2.7 1.9.36.13.73.2 1.12.2.96.02 2.14-.36 3.33-.86 1.2-.5 2.4-1.12 3.57-1.5.94-.28 2.03-.3 3.1-.33 1.07-.02 2.1-.05 2.72-.2.07-.04.14-.06.2-.08-.43-.3-1.04-.6-1.75-.9-1.3-.5-2.8-.7-3.9-1-2.2-.5-4.7-.9-7.2-1.7-.4-.2-.9-.3-1.3-.5-2.7-1.2-5-2.6-7.5-3.7-.4-.2-.8-.4-1.2-.5-.6-.3-1.1-.3-1.7-.3-.1 0-.4 0-.6.1h-.2.2c1.7.6 3 1.7 4.1 2.8z" fill="#DE4F55"/>
  <radialGradient id="d" cx="443.52" cy="216.94" r="82.15" gradientTransform="matrix(1 0 0 .547 0 98.266)" gradientUnits="userSpaceOnUse">
    <stop offset="0" stop-color="#FFD67A"/>
    <stop offset=".5" stop-color="#FED578"/>
    <stop offset=".79" stop-color="#FBD06F"/>
    <stop offset="1" stop-color="#F7CA63"/>
  </radialGradient>
  <path d="M528.15 227.15c-3.9-7.88-10.54-15.18-19.56-21.05-18.3-11.95-44-16.98-66.5-16.96-17.1.03-35.4 2.9-51.6 9.67-16.3 6.7-28.7 17.5-34.4 29.4-3.9 8-5.4 16.3-4.8 25.2.2 2.8 1.1 5.3 2.6 7.9 1.5 2.6 3.8 5 6.8 7.3 5.3 4.2 20 10.2 25.9 11.7 19.52 5.4 41.4 7.2 54.36 7.2 8.87 0 21.6-.5 35.1-2.2 7-.9 14.15-2.1 20.9-3.8 8.25-2.2 20.6-7.1 26.26-11.8 2.74-2.2 4.9-4.8 6.4-7.4 1.7-2.9 2.66-6 2.9-9.5.67-9-.8-17.4-4.7-25.3z" fill="url(#d)"/>
  <linearGradient id="e" gradientUnits="userSpaceOnUse" x1="616.65" y1="261.35" x2="762.68" y2="261.35">
    <stop offset="0" stop-color="#F77943"/>
    <stop offset=".48" stop-color="#F77943"/>
    <stop offset=".52" stop-color="#E8723E"/>
    <stop offset="1" stop-color="#E8723E"/>
  </linearGradient>
  <path d="M762.68 214.86c-9.06-27.9-46.94-29.84-73-36.52-26.08 6.68-63.97 8.63-73.03 36.52 3.86 20.04 26.28 122.32 27.67 129.28 9.2 1.7 25-7.14 45.35-7.14 21.33-1.02 36.82 8.82 45.26 7.17 1.58-9.63 23.9-109.27 27.75-129.3z" fill="url(#e)"/>
  <linearGradient id="f" gradientUnits="userSpaceOnUse" x1="616.65" y1="205.94" x2="762.68" y2="205.94">
    <stop offset="0" stop-color="#E36F3D"/>
    <stop offset=".48" stop-color="#E36F3D"/>
    <stop offset=".52" stop-color="#D96A39"/>
    <stop offset="1" stop-color="#D96A39"/>
  </linearGradient>
  <path d="M762.68 214.86c-10.06-31.2-47.4-40.27-72.7-42.88-26.22 2.6-63.27 11.68-73.33 42.88 5.6-.75.43 6.75 48.7 10.1 1.87-1.46 4.52 12.15 24.63 14.94 20.07-2.8 22.5-16.4 24.4-14.94 48.25-3.35 42.7-10.84 48.3-10.1z" fill="url(#f)"/>
  <defs>
    <path id="g" d="M762.68 214.86C769 181.5 786.2 131 690.98 131c-91.77 0-77.48 54.45-74.33 83.86 5.6-.75.43 6.75 48.7 10.1 1.87-1.46 4.52 12.15 24.63 14.94 20.07-2.8 22.5-16.4 24.4-14.94 48.25-3.35 42.7-10.84 48.3-10.1z"/>
  </defs>
  <clipPath id="h">
    <use xlink:href="#g" overflow="visible"/>
  </clipPath>
  <path fill="#FFE270" d="M707.96 258.32l-9.9-1.6 5.33-23.88 3-24.27 4.9-23.9 5.2-23.86 3.8-24.4 10.4 2.2-5.1 23.8-3.6 24.2-4 24.1-5.6 23.8zm-30.7 19.9l-10 3.14-10.6-21.66-10.3-21.65-9.22-22.17-10.3-21.65-11.63-21.2 10.4-2.26 10.1 21.4 10.7 21.48L658 234.7l9.08 22.23zm16.28-2.96l-10.75-3.2.4-25.35-1.5-25.4 1.1-25.4.6-25.4v-25.1l9.3 2.7.5 25.3.1 25.5-.8 25.5v25.5zm20.54 12.34l-9.7-7.42 11.2-23.32 11.5-22.97 9.78-23.8 10.42-23.5 11.62-22.5 8.63 6-11.6 23.2-10.44 23.4-11.5 23-10 23.7zm-32.6-17.32l-11.05-.53-8.5-22.68-7.52-23.15-5.7-23.73-7.2-23.3-7.3-22.8 10.7.5 6.9 23.1 7.8 23 8.4 22.9 6.4 23.5zm14.72 2.18l-10.18-2.1 3.23-22.55 3.93-22.2 2.4-22.5 2.7-22.4 3.13-22.6 10.7 3.1-3.4 22.3-1.4 22.6-3.4 22.4-3.7 22.3zm17.2-4.84l-11.5-2.57 7.9-22.3 7.8-22.7 8-22.64 8.88-22.3 7.14-23.1 12.9 2.2-9.77 22.4-6.84 23.1-8.1 22.6-8.4 22.5zm-21.94 11.14L680 282.9l-4.2-23.8-5.02-23.37-4.37-23.52-5.2-23.3-4.5-23.7 11.3-3.1 6 22.9 3 23.8 6.3 23.2 4.7 23.5z" clip-path="url(#h)"/>
</svg>
