<svg xmlns="http://www.w3.org/2000/svg" width="214.68" height="380.44" viewBox="0 0 214.68 380.44"><path fill="#D8C761" fill-rule="evenodd" d="M0 78.1c.96-1.37 2.3-2.37 4.28-2.75 4.47-.84 8.07 2.26 10.82 5.83 5.35 6.93 5.42 15.27 5.55 23.36.12 6.9 1.73 10.88 9.7 10.3 3.7-.28 7.54 1.05 11.32 1.6l41.14 6.15c6.87 1 13.73 2.04 20.6 3.07 6.53.97 13.2 2.43 19.8 2.52 1.68.02 8.44 1.26 9.43-.15 1.93-2.77-4.1-10.28-5.17-12.74-1.35-3.1-3.18-6.3-5.9-8.43-3.05-2.4-6.98-2.45-10.54-3.67-23.18-7.93-36.77-28.58-36.1-50.14.6-19.02 14.04-36.56 32.93-42.97 26.1-8.85 50.27.43 60.66 23.28 11.54 25.4 2.32 56.07-20.76 69.04-2.62 1.46-8.3 1.05-6.46 5.7 1.42 3.63 2.05 7.56 3.76 11.06 1.14 2.34 2.1 5.08 4.23 6.7 4.24 3.18 10.53 2.85 15.55 3.13 11.95.67 23.82 2.36 35.67 4.02 14.08 1.95 17.54 8.82 11 21.75-4.3 8.5-10.2 16.08-16.73 23-1.87 2-3.8 3.93-5.74 5.83-.97.96-1.95 1.9-2.94 2.84-2.38 2.26-4.86 4.07-7.44 6.06-1.58 1.2-3.2 2.37-4.68 3.7-1.9 1.68-3.5 3.32-4.23 5.9-.32 1.16-.34 2.26-1.14 3.27-.73.95-1.87 1.5-2.64 2.4-1.04 1.24-1.54 2.96-1.46 4.56.14 2.78.2 5.56.36 8.33 1.43 24.37-.75 48.02-7.26 71.05-4.75 16.78-3 28.04 14.46 34.9 11.1 4.37 14.97 12.96 8.88 24.1-4.23 7.73-6.24 9.3 5.42 16.12 3.17 1.85 5.95 5.5 4.28 9.77-1.77 4.54-6.06 4.08-9.9 3.45-13.85-2.3-27.75-.47-41.6-.55-5.43-.04-10.73-.55-15.2-3.46-4.5-2.95-6.25-5.67-.7-11 11.36-10.94 13.06-26.77 17.33-41.14 1.15-3.88-1.97-5.87-4.54-8.17-20.1-18-20.07-18.04-7.86-43.1 2.52-5.16 4.53-10.6 7.5-15.5 16-26.46 17.8-54.66 12.04-84.35-6.02-30.98-5.54-31.07-36.93-36.24-.47-.08-.93-.24-1.4-.32-29.46-3.66-58.9-7.62-88.4-10.85-8-.9-17.68-3.28-20.97-7.38V78.1zm128-58.67c-22.08-.12-39.55 17.22-39.32 39 .22 19.85 17.73 36.27 38.67 36.27 21.3 0 33.5-13.67 33.62-37.64C161.1 35.58 147 19.52 128 19.43zm31.1 119.32c-2.9 0-6.7-1-7.4 2.73-.48 2.7.9 5.6 1.76 8.1 1.4 4.14 2.33 8.42 3.6 12.6.5 1.7 1.35 3.32 1.72 5.03.46 2.2 1.1 4.2 2.06 6.2.34.72.68 1.62 1.15 2.26.5.72 1.53 1.07 2.16 1.72.67.7 1.16 1.6 1.6 2.46.58 1.15.9 2.2 2.35 2.2 1.07.02 2.23.14 3.27-.03 2.17-.33 3.95-1.5 5.74-2.7 10.94-7.37 17.75-18.43 25.2-28.85 4.18-5.85-.24-7.36-4.9-8.08-6.07-.95-12.2-1.67-18.32-2.12-3.02-.22-6.04-.38-9.07-.45-1.72-.04-3.46-.3-5.16-.33-1-.03-1.98-.22-2.96-.4-.93-.16-1.85-.32-2.8-.32zm-8.52 113.06c-4.24 7.9-8.9 15.57-13.14 23.46-2.14 4-4.16 8.03-6 12.16-1.16 2.63-1.92 4.02-1.86 6.96.05 2.33.5 4.6 2.55 6 4 2.7 9.12 4.87 11.84 9.1 4.8-21.24 7.7-38.84 6.6-57.67zm-5.07 104.75c4.88 1.35 8-2.17 11.22-4.95 4.7-4.07 10.14-9.26 8.56-15.12-1-3.75-7.83-6.2-12.36-8.62-1.92-1.03-3.12 1.1-3.63 3.1-1.74 6.94-3.56 13.85-5.35 20.76-.26 1.9-.58 4.23 1.56 4.83z" clip-rule="evenodd"/></svg>