<svg xmlns="http://www.w3.org/2000/svg" width="448.1" height="339.2" viewBox="0 0 448.1 339.2"><path fill="#ffd2a5" fill-rule="evenodd" d="M1.5 109.3c6.7 12 6.8 24.6 6.3 37.5-.4 10.4 5.5 13.6 15 13.2 8.6-.3 17.2 0 25.7 0 14-1.3 28-3.7 42.2-4 1.4-.2 3-.3 4.5-.3 31.3-.7 62.4-7.3 94-3 5 .6 10.4.5 13.4 5.3 14.8 23.5 29.4 47.2 45.3 72.8-29-.3-56-2-81.7 6.5-4.8 1.6-9.8 2.8-14.2 5-18.6 9.8-20 25.3-3.5 38.4 13.7 10.7 30.6 15.8 46.5 25-15.5 7.4-29 16.5-46.4 12.5-5.6-1.3-11.8.8-13 7.7-1.4 8.8 6.3 9.6 12 10.8 28.5 6.2 53-1.7 73.2-22.5 6.4-6.6 2.7-10.4-4.4-13.6C199 293 181.2 286 166 274.3c-4.4-3.5-11-6.4-10.6-12.2.6-6.7 8.6-6 13.5-7.4 25-7 50-10.5 76.2-4.4 14.2 3.3 26.8 8 36.4 19 30.3 34.6 68.8 38.4 110.7 30.3 7-1.4 14.2-2.2 22.7-3.5-1.4 14.4-10.2 22.3-20.3 29.2-3.4 2.3-6.8 4.5-5 9.3 1.4 3.7 5 4 8.4 4.3 13.8 1 27.3 1.4 36.3-12 9-13.3 9.4-27 2.7-41.3-4.3-9-10.3-12-20.4-8.5-12.6 4.4-25 9-38.5 11.4-38 6.8-67.5-8-90.6-35.8-36.7-44.2-67-92.5-85.6-147.5-2.7-7.8-1.8-13 2.7-20 15-22 14.2-37.2-1.2-56.2C189 11 166.3 3.4 148 10c-20.3 7.3-33.2 26.7-33.2 49.8 0 23.6 25 47.5 50.6 45.8 14.4-1 19 4 18.8 17.7-32-.4-64-3.2-95.8-.7h-2.6c-.7.2-1.4.3-2.2.3H66.4c-.5 0-1 0-1.4-.2h-1c-7.3 0-11.6-1-12.5-9.5-1-9.4-3.8-18.7-6-28-1.3-6-4.5-11.3-11.2-9.6-6.7 1.7-6.8 8.3-5.6 14 2 9 5.5 18 1.2 31-5-8.8-7.8-14.8-11.3-20.3-3-4.8-8.2-6-13.3-4-6 2.6-6.5 8.4-4 13zm164.2-17c-20 .2-36.3-15.7-36.6-36-.3-21.2 13.3-36 33.4-36 19.3-.2 39.6 18 40.3 36 .7 18.5-16.8 35.7-37 36zm-9 41c4 0 8.3-.3 12.5 0 2.2.3 4.5.2 6.7.5 2 .2 9 .5 10.2 2.7l-6.4.7c-2 0-3.7 0-5.6.3-2.5.4-5 .5-7.6.7l-6.3.3c-1.8 0-3.5.4-5.2.6-6.6.7-13 .5-19.8.7-10.8.4-21.5 1-32.3 2l-9.8.8c-3.8.4-7.7.7-11.4 1.2l-4.4.6c-2.4.2-5 0-7.3.4-2 .3-4 1-6.2 1l-6.6.6h-2l-4.8.4c-1.6 0-3.2.3-4.8.2-2.7-.3-3.6-2.6-3.6-5 0-4 1.3-7 5-8 1.8-.5 3.6-.6 5.2-.5 3 .2 5.6 0 8.5-.3 6-.4 12 0 18-.5 2.4 0 4.6-.5 6.8-.6" clip-rule="evenodd"/></svg>